<mxfile host="65bd71144e">
    <diagram id="xX8tvpBelQaRzRdg0BwZ" name="MapaContenido">
        <mxGraphModel dx="1093" dy="618" grid="1" gridSize="10" guides="1" tooltips="1" connect="1" arrows="1" fold="1" page="1" pageScale="1" pageWidth="1100" pageHeight="850" math="0" shadow="0">
            <root>
                <mxCell id="eNKYxBsOCk_GWGlPTTgq-0"/>
                <mxCell id="eNKYxBsOCk_GWGlPTTgq-1" parent="eNKYxBsOCk_GWGlPTTgq-0"/>
                <mxCell id="eNKYxBsOCk_GWGlPTTgq-50" style="edgeStyle=none;html=1;startArrow=none;startFill=0;endArrow=open;endFill=0;sourcePerimeterSpacing=0;" parent="eNKYxBsOCk_GWGlPTTgq-1" source="eNKYxBsOCk_GWGlPTTgq-2" target="eNKYxBsOCk_GWGlPTTgq-5" edge="1">
                    <mxGeometry relative="1" as="geometry"/>
                </mxCell>
                <mxCell id="eNKYxBsOCk_GWGlPTTgq-51" style="edgeStyle=none;html=1;startArrow=none;startFill=0;endArrow=open;endFill=0;sourcePerimeterSpacing=0;" parent="eNKYxBsOCk_GWGlPTTgq-1" source="eNKYxBsOCk_GWGlPTTgq-2" target="eNKYxBsOCk_GWGlPTTgq-113" edge="1">
                    <mxGeometry relative="1" as="geometry">
                        <mxPoint x="290" y="160" as="targetPoint"/>
                        <Array as="points">
                            <mxPoint x="480" y="130"/>
                            <mxPoint x="290" y="130"/>
                        </Array>
                    </mxGeometry>
                </mxCell>
                <mxCell id="eNKYxBsOCk_GWGlPTTgq-52" style="edgeStyle=none;html=1;startArrow=none;startFill=0;endArrow=open;endFill=0;sourcePerimeterSpacing=0;" parent="eNKYxBsOCk_GWGlPTTgq-1" source="eNKYxBsOCk_GWGlPTTgq-2" target="eNKYxBsOCk_GWGlPTTgq-48" edge="1">
                    <mxGeometry relative="1" as="geometry">
                        <Array as="points">
                            <mxPoint x="480" y="130"/>
                            <mxPoint x="100" y="130"/>
                        </Array>
                    </mxGeometry>
                </mxCell>
                <mxCell id="eNKYxBsOCk_GWGlPTTgq-77" style="edgeStyle=none;html=1;startArrow=none;startFill=0;endArrow=open;endFill=0;sourcePerimeterSpacing=0;" parent="eNKYxBsOCk_GWGlPTTgq-1" source="eNKYxBsOCk_GWGlPTTgq-2" target="eNKYxBsOCk_GWGlPTTgq-76" edge="1">
                    <mxGeometry relative="1" as="geometry">
                        <Array as="points">
                            <mxPoint x="480" y="130"/>
                            <mxPoint x="200" y="130"/>
                        </Array>
                    </mxGeometry>
                </mxCell>
                <mxCell id="eNKYxBsOCk_GWGlPTTgq-83" style="edgeStyle=none;html=1;startArrow=none;startFill=0;endArrow=open;endFill=0;sourcePerimeterSpacing=0;" parent="eNKYxBsOCk_GWGlPTTgq-1" source="eNKYxBsOCk_GWGlPTTgq-2" target="CNeSGMCtKJL2MYmjwMrN-0" edge="1">
                    <mxGeometry relative="1" as="geometry">
                        <Array as="points">
                            <mxPoint x="480" y="130"/>
                        </Array>
                        <mxPoint x="760" y="130" as="targetPoint"/>
                    </mxGeometry>
                </mxCell>
                <mxCell id="eNKYxBsOCk_GWGlPTTgq-2" value="Home" style="rounded=0;whiteSpace=wrap;html=1;" parent="eNKYxBsOCk_GWGlPTTgq-1" vertex="1">
                    <mxGeometry x="420" y="40" width="120" height="60" as="geometry"/>
                </mxCell>
                <mxCell id="eNKYxBsOCk_GWGlPTTgq-55" style="edgeStyle=none;html=1;startArrow=none;startFill=0;endArrow=open;endFill=0;sourcePerimeterSpacing=0;" parent="eNKYxBsOCk_GWGlPTTgq-1" source="eNKYxBsOCk_GWGlPTTgq-5" target="eNKYxBsOCk_GWGlPTTgq-6" edge="1">
                    <mxGeometry relative="1" as="geometry"/>
                </mxCell>
                <mxCell id="eNKYxBsOCk_GWGlPTTgq-5" value="Blog" style="rounded=0;whiteSpace=wrap;html=1;" parent="eNKYxBsOCk_GWGlPTTgq-1" vertex="1">
                    <mxGeometry x="420" y="160" width="120" height="60" as="geometry"/>
                </mxCell>
                <mxCell id="eNKYxBsOCk_GWGlPTTgq-63" style="edgeStyle=none;html=1;startArrow=none;startFill=0;endArrow=open;endFill=0;sourcePerimeterSpacing=0;" parent="eNKYxBsOCk_GWGlPTTgq-1" source="eNKYxBsOCk_GWGlPTTgq-6" target="eNKYxBsOCk_GWGlPTTgq-62" edge="1">
                    <mxGeometry relative="1" as="geometry"/>
                </mxCell>
                <mxCell id="eNKYxBsOCk_GWGlPTTgq-6" value="Publicación" style="rounded=0;whiteSpace=wrap;html=1;" parent="eNKYxBsOCk_GWGlPTTgq-1" vertex="1">
                    <mxGeometry x="420" y="270" width="120" height="60" as="geometry"/>
                </mxCell>
                <mxCell id="eNKYxBsOCk_GWGlPTTgq-75" style="edgeStyle=none;html=1;startArrow=none;startFill=0;endArrow=open;endFill=0;sourcePerimeterSpacing=0;" parent="eNKYxBsOCk_GWGlPTTgq-1" source="eNKYxBsOCk_GWGlPTTgq-8" target="eNKYxBsOCk_GWGlPTTgq-74" edge="1">
                    <mxGeometry relative="1" as="geometry">
                        <Array as="points">
                            <mxPoint x="920" y="670"/>
                            <mxPoint x="400" y="670"/>
                        </Array>
                    </mxGeometry>
                </mxCell>
                <mxCell id="eNKYxBsOCk_GWGlPTTgq-119" style="edgeStyle=none;html=1;startArrow=none;startFill=0;endArrow=open;endFill=0;sourcePerimeterSpacing=0;" parent="eNKYxBsOCk_GWGlPTTgq-1" source="eNKYxBsOCk_GWGlPTTgq-8" target="eNKYxBsOCk_GWGlPTTgq-125" edge="1">
                    <mxGeometry relative="1" as="geometry">
                        <mxPoint x="1340" y="700" as="targetPoint"/>
                        <Array as="points">
                            <mxPoint x="920" y="670"/>
                            <mxPoint x="1770" y="670"/>
                        </Array>
                    </mxGeometry>
                </mxCell>
                <mxCell id="eNKYxBsOCk_GWGlPTTgq-8" value="Dashboard" style="rounded=0;whiteSpace=wrap;html=1;" parent="eNKYxBsOCk_GWGlPTTgq-1" vertex="1">
                    <mxGeometry x="860" y="580" width="120" height="60" as="geometry"/>
                </mxCell>
                <mxCell id="eNKYxBsOCk_GWGlPTTgq-48" value="Nosotros" style="rounded=0;whiteSpace=wrap;html=1;" parent="eNKYxBsOCk_GWGlPTTgq-1" vertex="1">
                    <mxGeometry x="40" y="160" width="120" height="60" as="geometry"/>
                </mxCell>
                <mxCell id="eNKYxBsOCk_GWGlPTTgq-57" value="" style="group" parent="eNKYxBsOCk_GWGlPTTgq-1" vertex="1" connectable="0">
                    <mxGeometry x="420" y="470" width="120" height="60" as="geometry"/>
                </mxCell>
                <mxCell id="eNKYxBsOCk_GWGlPTTgq-7" value="Comentarios" style="rounded=0;whiteSpace=wrap;html=1;" parent="eNKYxBsOCk_GWGlPTTgq-57" vertex="1">
                    <mxGeometry width="120" height="60" as="geometry"/>
                </mxCell>
                <mxCell id="eNKYxBsOCk_GWGlPTTgq-47" value="" style="sketch=0;pointerEvents=1;shadow=0;dashed=0;html=1;strokeColor=none;fillColor=#505050;labelPosition=center;verticalLabelPosition=bottom;verticalAlign=top;outlineConnect=0;align=center;shape=mxgraph.office.concepts.form;" parent="eNKYxBsOCk_GWGlPTTgq-57" vertex="1">
                    <mxGeometry width="22.86" height="20" as="geometry"/>
                </mxCell>
                <mxCell id="eNKYxBsOCk_GWGlPTTgq-58" value="" style="group" parent="eNKYxBsOCk_GWGlPTTgq-1" vertex="1" connectable="0">
                    <mxGeometry x="660" y="290" width="120" height="60" as="geometry"/>
                </mxCell>
                <mxCell id="eNKYxBsOCk_GWGlPTTgq-4" value="Registro" style="rounded=0;whiteSpace=wrap;html=1;" parent="eNKYxBsOCk_GWGlPTTgq-58" vertex="1">
                    <mxGeometry width="120" height="60" as="geometry"/>
                </mxCell>
                <mxCell id="eNKYxBsOCk_GWGlPTTgq-45" value="" style="sketch=0;pointerEvents=1;shadow=0;dashed=0;html=1;strokeColor=none;fillColor=#505050;labelPosition=center;verticalLabelPosition=bottom;verticalAlign=top;outlineConnect=0;align=center;shape=mxgraph.office.concepts.form;" parent="eNKYxBsOCk_GWGlPTTgq-58" vertex="1">
                    <mxGeometry width="22.86" height="20" as="geometry"/>
                </mxCell>
                <mxCell id="eNKYxBsOCk_GWGlPTTgq-59" value="" style="group" parent="eNKYxBsOCk_GWGlPTTgq-1" vertex="1" connectable="0">
                    <mxGeometry x="860" y="284" width="120" height="60" as="geometry"/>
                </mxCell>
                <mxCell id="eNKYxBsOCk_GWGlPTTgq-3" value="Iniciar sesión" style="rounded=0;whiteSpace=wrap;html=1;" parent="eNKYxBsOCk_GWGlPTTgq-59" vertex="1">
                    <mxGeometry width="120" height="60" as="geometry"/>
                </mxCell>
                <mxCell id="eNKYxBsOCk_GWGlPTTgq-46" value="" style="sketch=0;pointerEvents=1;shadow=0;dashed=0;html=1;strokeColor=none;fillColor=#505050;labelPosition=center;verticalLabelPosition=bottom;verticalAlign=top;outlineConnect=0;align=center;shape=mxgraph.office.concepts.form;" parent="eNKYxBsOCk_GWGlPTTgq-59" vertex="1">
                    <mxGeometry width="22.86" height="20" as="geometry"/>
                </mxCell>
                <mxCell id="eNKYxBsOCk_GWGlPTTgq-64" style="edgeStyle=none;html=1;startArrow=none;startFill=0;endArrow=open;endFill=0;sourcePerimeterSpacing=0;" parent="eNKYxBsOCk_GWGlPTTgq-1" source="eNKYxBsOCk_GWGlPTTgq-62" target="eNKYxBsOCk_GWGlPTTgq-7" edge="1">
                    <mxGeometry relative="1" as="geometry"/>
                </mxCell>
                <mxCell id="eNKYxBsOCk_GWGlPTTgq-65" style="edgeStyle=none;html=1;startArrow=none;startFill=0;endArrow=open;endFill=0;sourcePerimeterSpacing=0;" parent="eNKYxBsOCk_GWGlPTTgq-1" source="eNKYxBsOCk_GWGlPTTgq-62" target="eNKYxBsOCk_GWGlPTTgq-3" edge="1">
                    <mxGeometry relative="1" as="geometry">
                        <Array as="points">
                            <mxPoint x="580" y="400"/>
                            <mxPoint x="580" y="450"/>
                            <mxPoint x="820" y="450"/>
                            <mxPoint x="820" y="314"/>
                        </Array>
                    </mxGeometry>
                </mxCell>
                <mxCell id="eNKYxBsOCk_GWGlPTTgq-62" value="Sesión" style="rhombus;whiteSpace=wrap;html=1;" parent="eNKYxBsOCk_GWGlPTTgq-1" vertex="1">
                    <mxGeometry x="450" y="370" width="60" height="60" as="geometry"/>
                </mxCell>
                <mxCell id="eNKYxBsOCk_GWGlPTTgq-70" style="edgeStyle=none;html=1;startArrow=none;startFill=0;endArrow=open;endFill=0;sourcePerimeterSpacing=0;" parent="eNKYxBsOCk_GWGlPTTgq-1" source="eNKYxBsOCk_GWGlPTTgq-66" target="eNKYxBsOCk_GWGlPTTgq-67" edge="1">
                    <mxGeometry relative="1" as="geometry"/>
                </mxCell>
                <mxCell id="eNKYxBsOCk_GWGlPTTgq-72" style="edgeStyle=none;html=1;startArrow=none;startFill=0;endArrow=open;endFill=0;sourcePerimeterSpacing=0;" parent="eNKYxBsOCk_GWGlPTTgq-1" source="eNKYxBsOCk_GWGlPTTgq-66" target="eNKYxBsOCk_GWGlPTTgq-3" edge="1">
                    <mxGeometry relative="1" as="geometry">
                        <Array as="points">
                            <mxPoint x="1030" y="413"/>
                            <mxPoint x="1030" y="314"/>
                        </Array>
                    </mxGeometry>
                </mxCell>
                <mxCell id="eNKYxBsOCk_GWGlPTTgq-66" value="Sesión" style="rhombus;whiteSpace=wrap;html=1;" parent="eNKYxBsOCk_GWGlPTTgq-1" vertex="1">
                    <mxGeometry x="890" y="383" width="60" height="60" as="geometry"/>
                </mxCell>
                <mxCell id="eNKYxBsOCk_GWGlPTTgq-68" style="edgeStyle=none;html=1;startArrow=none;startFill=0;endArrow=open;endFill=0;sourcePerimeterSpacing=0;" parent="eNKYxBsOCk_GWGlPTTgq-1" source="eNKYxBsOCk_GWGlPTTgq-67" target="eNKYxBsOCk_GWGlPTTgq-7" edge="1">
                    <mxGeometry relative="1" as="geometry">
                        <mxPoint x="580" y="610" as="targetPoint"/>
                        <Array as="points"/>
                    </mxGeometry>
                </mxCell>
                <mxCell id="eNKYxBsOCk_GWGlPTTgq-71" style="edgeStyle=none;html=1;startArrow=none;startFill=0;endArrow=open;endFill=0;sourcePerimeterSpacing=0;" parent="eNKYxBsOCk_GWGlPTTgq-1" source="eNKYxBsOCk_GWGlPTTgq-67" target="eNKYxBsOCk_GWGlPTTgq-8" edge="1">
                    <mxGeometry relative="1" as="geometry"/>
                </mxCell>
                <mxCell id="eNKYxBsOCk_GWGlPTTgq-67" value="Comenta" style="rhombus;whiteSpace=wrap;html=1;" parent="eNKYxBsOCk_GWGlPTTgq-1" vertex="1">
                    <mxGeometry x="890" y="470" width="60" height="60" as="geometry"/>
                </mxCell>
                <mxCell id="eNKYxBsOCk_GWGlPTTgq-69" style="edgeStyle=none;html=1;startArrow=none;startFill=0;endArrow=open;endFill=0;sourcePerimeterSpacing=0;" parent="eNKYxBsOCk_GWGlPTTgq-1" source="eNKYxBsOCk_GWGlPTTgq-3" target="eNKYxBsOCk_GWGlPTTgq-66" edge="1">
                    <mxGeometry relative="1" as="geometry"/>
                </mxCell>
                <mxCell id="eNKYxBsOCk_GWGlPTTgq-73" style="edgeStyle=none;html=1;startArrow=none;startFill=0;endArrow=open;endFill=0;sourcePerimeterSpacing=0;" parent="eNKYxBsOCk_GWGlPTTgq-1" source="eNKYxBsOCk_GWGlPTTgq-4" target="eNKYxBsOCk_GWGlPTTgq-8" edge="1">
                    <mxGeometry relative="1" as="geometry">
                        <mxPoint x="720" y="610" as="targetPoint"/>
                        <Array as="points">
                            <mxPoint x="720" y="610"/>
                        </Array>
                    </mxGeometry>
                </mxCell>
                <mxCell id="eNKYxBsOCk_GWGlPTTgq-87" value="" style="edgeStyle=none;html=1;startArrow=none;startFill=0;endArrow=open;endFill=0;sourcePerimeterSpacing=0;" parent="eNKYxBsOCk_GWGlPTTgq-1" source="eNKYxBsOCk_GWGlPTTgq-74" target="AhMMrwKMJMBrkm3QAdiH-33" edge="1">
                    <mxGeometry relative="1" as="geometry">
                        <mxPoint x="400" y="830" as="targetPoint"/>
                    </mxGeometry>
                </mxCell>
                <mxCell id="L9y62m9pfD5F6gvJoC_6-13" style="edgeStyle=none;html=1;startArrow=none;startFill=0;endArrow=open;endFill=0;sourcePerimeterSpacing=0;" parent="eNKYxBsOCk_GWGlPTTgq-1" source="eNKYxBsOCk_GWGlPTTgq-74" target="1" edge="1">
                    <mxGeometry relative="1" as="geometry">
                        <Array as="points">
                            <mxPoint x="160" y="740"/>
                        </Array>
                    </mxGeometry>
                </mxCell>
                <mxCell id="eNKYxBsOCk_GWGlPTTgq-74" value="Usuario" style="rhombus;whiteSpace=wrap;html=1;" parent="eNKYxBsOCk_GWGlPTTgq-1" vertex="1">
                    <mxGeometry x="370" y="710" width="60" height="60" as="geometry"/>
                </mxCell>
                <mxCell id="eNKYxBsOCk_GWGlPTTgq-76" value="Servicios" style="rounded=0;whiteSpace=wrap;html=1;" parent="eNKYxBsOCk_GWGlPTTgq-1" vertex="1">
                    <mxGeometry x="140" y="270" width="120" height="60" as="geometry"/>
                </mxCell>
                <mxCell id="eNKYxBsOCk_GWGlPTTgq-80" style="edgeStyle=none;html=1;startArrow=none;startFill=0;endArrow=open;endFill=0;sourcePerimeterSpacing=0;" parent="eNKYxBsOCk_GWGlPTTgq-1" source="eNKYxBsOCk_GWGlPTTgq-78" target="eNKYxBsOCk_GWGlPTTgq-6" edge="1">
                    <mxGeometry relative="1" as="geometry">
                        <Array as="points">
                            <mxPoint x="380" y="620"/>
                            <mxPoint x="380" y="300"/>
                        </Array>
                    </mxGeometry>
                </mxCell>
                <mxCell id="eNKYxBsOCk_GWGlPTTgq-78" value="Enviar comentario" style="rounded=1;whiteSpace=wrap;html=1;" parent="eNKYxBsOCk_GWGlPTTgq-1" vertex="1">
                    <mxGeometry x="420" y="590" width="120" height="60" as="geometry"/>
                </mxCell>
                <mxCell id="eNKYxBsOCk_GWGlPTTgq-79" style="edgeStyle=none;html=1;startArrow=none;startFill=0;endArrow=open;endFill=0;sourcePerimeterSpacing=0;" parent="eNKYxBsOCk_GWGlPTTgq-1" source="eNKYxBsOCk_GWGlPTTgq-7" target="eNKYxBsOCk_GWGlPTTgq-78" edge="1">
                    <mxGeometry relative="1" as="geometry"/>
                </mxCell>
                <mxCell id="L9y62m9pfD5F6gvJoC_6-1" style="edgeStyle=none;html=1;startArrow=none;startFill=0;endArrow=open;endFill=0;sourcePerimeterSpacing=0;" parent="eNKYxBsOCk_GWGlPTTgq-1" source="CNeSGMCtKJL2MYmjwMrN-0" target="L9y62m9pfD5F6gvJoC_6-0" edge="1">
                    <mxGeometry relative="1" as="geometry">
                        <mxPoint x="820" y="160" as="sourcePoint"/>
                    </mxGeometry>
                </mxCell>
                <mxCell id="eNKYxBsOCk_GWGlPTTgq-90" value="Si" style="text;html=1;strokeColor=none;fillColor=none;align=center;verticalAlign=middle;whiteSpace=wrap;rounded=0;" parent="eNKYxBsOCk_GWGlPTTgq-1" vertex="1">
                    <mxGeometry x="480" y="430" width="20" height="20" as="geometry"/>
                </mxCell>
                <mxCell id="eNKYxBsOCk_GWGlPTTgq-92" value="No" style="text;html=1;strokeColor=none;fillColor=none;align=center;verticalAlign=middle;whiteSpace=wrap;rounded=0;" parent="eNKYxBsOCk_GWGlPTTgq-1" vertex="1">
                    <mxGeometry x="510" y="380" width="20" height="20" as="geometry"/>
                </mxCell>
                <mxCell id="eNKYxBsOCk_GWGlPTTgq-93" value="No" style="text;html=1;strokeColor=none;fillColor=none;align=center;verticalAlign=middle;whiteSpace=wrap;rounded=0;" parent="eNKYxBsOCk_GWGlPTTgq-1" vertex="1">
                    <mxGeometry x="950" y="394" width="20" height="20" as="geometry"/>
                </mxCell>
                <mxCell id="eNKYxBsOCk_GWGlPTTgq-94" value="Si" style="text;html=1;strokeColor=none;fillColor=none;align=center;verticalAlign=middle;whiteSpace=wrap;rounded=0;" parent="eNKYxBsOCk_GWGlPTTgq-1" vertex="1">
                    <mxGeometry x="920" y="440" width="20" height="20" as="geometry"/>
                </mxCell>
                <mxCell id="eNKYxBsOCk_GWGlPTTgq-98" value="" style="group" parent="eNKYxBsOCk_GWGlPTTgq-1" vertex="1" connectable="0">
                    <mxGeometry x="1440" y="365" width="120" height="60" as="geometry"/>
                </mxCell>
                <mxCell id="eNKYxBsOCk_GWGlPTTgq-99" value="Nueva contraseña" style="rounded=0;whiteSpace=wrap;html=1;" parent="eNKYxBsOCk_GWGlPTTgq-98" vertex="1">
                    <mxGeometry width="120" height="60" as="geometry"/>
                </mxCell>
                <mxCell id="eNKYxBsOCk_GWGlPTTgq-100" value="" style="sketch=0;pointerEvents=1;shadow=0;dashed=0;html=1;strokeColor=none;fillColor=#505050;labelPosition=center;verticalLabelPosition=bottom;verticalAlign=top;outlineConnect=0;align=center;shape=mxgraph.office.concepts.form;" parent="eNKYxBsOCk_GWGlPTTgq-98" vertex="1">
                    <mxGeometry width="22.86" height="20" as="geometry"/>
                </mxCell>
                <mxCell id="eNKYxBsOCk_GWGlPTTgq-151" style="edgeStyle=none;html=1;startArrow=none;startFill=0;endArrow=open;endFill=0;sourcePerimeterSpacing=0;" parent="eNKYxBsOCk_GWGlPTTgq-1" source="eNKYxBsOCk_GWGlPTTgq-101" target="eNKYxBsOCk_GWGlPTTgq-150" edge="1">
                    <mxGeometry relative="1" as="geometry"/>
                </mxCell>
                <mxCell id="eNKYxBsOCk_GWGlPTTgq-101" value="Cambiar contraseña" style="rounded=1;whiteSpace=wrap;html=1;" parent="eNKYxBsOCk_GWGlPTTgq-1" vertex="1">
                    <mxGeometry x="1130" y="284" width="120" height="60" as="geometry"/>
                </mxCell>
                <mxCell id="eNKYxBsOCk_GWGlPTTgq-105" style="edgeStyle=none;html=1;startArrow=none;startFill=0;endArrow=open;endFill=0;sourcePerimeterSpacing=0;" parent="eNKYxBsOCk_GWGlPTTgq-1" source="eNKYxBsOCk_GWGlPTTgq-103" target="eNKYxBsOCk_GWGlPTTgq-3" edge="1">
                    <mxGeometry relative="1" as="geometry">
                        <Array as="points">
                            <mxPoint x="1080" y="545"/>
                            <mxPoint x="1080" y="314"/>
                        </Array>
                    </mxGeometry>
                </mxCell>
                <mxCell id="eNKYxBsOCk_GWGlPTTgq-103" value="Establecer contraseña" style="rounded=1;whiteSpace=wrap;html=1;" parent="eNKYxBsOCk_GWGlPTTgq-1" vertex="1">
                    <mxGeometry x="1440" y="515" width="120" height="60" as="geometry"/>
                </mxCell>
                <mxCell id="eNKYxBsOCk_GWGlPTTgq-104" style="edgeStyle=none;html=1;startArrow=none;startFill=0;endArrow=open;endFill=0;sourcePerimeterSpacing=0;" parent="eNKYxBsOCk_GWGlPTTgq-1" source="eNKYxBsOCk_GWGlPTTgq-99" target="eNKYxBsOCk_GWGlPTTgq-103" edge="1">
                    <mxGeometry relative="1" as="geometry"/>
                </mxCell>
                <mxCell id="eNKYxBsOCk_GWGlPTTgq-108" value="- Usuario&lt;br&gt;- Contraseña" style="text;html=1;strokeColor=none;fillColor=none;align=left;verticalAlign=middle;whiteSpace=wrap;rounded=0;" parent="eNKYxBsOCk_GWGlPTTgq-1" vertex="1">
                    <mxGeometry x="920" y="344" width="120" height="30" as="geometry"/>
                </mxCell>
                <mxCell id="eNKYxBsOCk_GWGlPTTgq-109" value="- Nombre&lt;br&gt;- Apellido&lt;br&gt;- Correo&lt;br&gt;- Contraseña&lt;br&gt;- Tipo de usuario" style="text;html=1;strokeColor=none;fillColor=none;align=left;verticalAlign=middle;whiteSpace=wrap;rounded=0;" parent="eNKYxBsOCk_GWGlPTTgq-1" vertex="1">
                    <mxGeometry x="720" y="335" width="120" height="110" as="geometry"/>
                </mxCell>
                <mxCell id="eNKYxBsOCk_GWGlPTTgq-110" value="- Nueva contraseña&lt;br&gt;- Repetir Contraseña" style="text;html=1;strokeColor=none;fillColor=none;align=left;verticalAlign=middle;whiteSpace=wrap;rounded=0;" parent="eNKYxBsOCk_GWGlPTTgq-1" vertex="1">
                    <mxGeometry x="1500" y="425" width="120" height="30" as="geometry"/>
                </mxCell>
                <mxCell id="eNKYxBsOCk_GWGlPTTgq-111" value="- Comentario" style="text;html=1;strokeColor=none;fillColor=none;align=left;verticalAlign=middle;whiteSpace=wrap;rounded=0;" parent="eNKYxBsOCk_GWGlPTTgq-1" vertex="1">
                    <mxGeometry x="480" y="530" width="120" height="30" as="geometry"/>
                </mxCell>
                <mxCell id="eNKYxBsOCk_GWGlPTTgq-112" value="" style="group" parent="eNKYxBsOCk_GWGlPTTgq-1" vertex="1" connectable="0">
                    <mxGeometry x="230" y="160" width="120" height="60" as="geometry"/>
                </mxCell>
                <mxCell id="eNKYxBsOCk_GWGlPTTgq-113" value="Contacto" style="rounded=0;whiteSpace=wrap;html=1;" parent="eNKYxBsOCk_GWGlPTTgq-112" vertex="1">
                    <mxGeometry width="120" height="60" as="geometry"/>
                </mxCell>
                <mxCell id="eNKYxBsOCk_GWGlPTTgq-114" value="" style="sketch=0;pointerEvents=1;shadow=0;dashed=0;html=1;strokeColor=none;fillColor=#505050;labelPosition=center;verticalLabelPosition=bottom;verticalAlign=top;outlineConnect=0;align=center;shape=mxgraph.office.concepts.form;" parent="eNKYxBsOCk_GWGlPTTgq-112" vertex="1">
                    <mxGeometry width="22.86" height="20" as="geometry"/>
                </mxCell>
                <mxCell id="eNKYxBsOCk_GWGlPTTgq-117" style="edgeStyle=none;html=1;startArrow=none;startFill=0;endArrow=open;endFill=0;sourcePerimeterSpacing=0;" parent="eNKYxBsOCk_GWGlPTTgq-1" source="eNKYxBsOCk_GWGlPTTgq-115" target="eNKYxBsOCk_GWGlPTTgq-113" edge="1">
                    <mxGeometry relative="1" as="geometry">
                        <Array as="points">
                            <mxPoint x="370" y="395"/>
                            <mxPoint x="370" y="190"/>
                        </Array>
                    </mxGeometry>
                </mxCell>
                <mxCell id="eNKYxBsOCk_GWGlPTTgq-115" value="Enviar mensaje" style="rounded=1;whiteSpace=wrap;html=1;" parent="eNKYxBsOCk_GWGlPTTgq-1" vertex="1">
                    <mxGeometry x="230" y="365" width="120" height="60" as="geometry"/>
                </mxCell>
                <mxCell id="eNKYxBsOCk_GWGlPTTgq-116" style="edgeStyle=none;html=1;startArrow=none;startFill=0;endArrow=open;endFill=0;sourcePerimeterSpacing=0;" parent="eNKYxBsOCk_GWGlPTTgq-1" source="eNKYxBsOCk_GWGlPTTgq-113" target="eNKYxBsOCk_GWGlPTTgq-115" edge="1">
                    <mxGeometry relative="1" as="geometry">
                        <Array as="points"/>
                    </mxGeometry>
                </mxCell>
                <mxCell id="eNKYxBsOCk_GWGlPTTgq-118" value="- Nombre&lt;br&gt;- Apellido&lt;br&gt;- Correo&lt;br&gt;- Asunto&lt;br&gt;- Mensaje" style="text;html=1;strokeColor=none;fillColor=none;align=left;verticalAlign=middle;whiteSpace=wrap;rounded=0;" parent="eNKYxBsOCk_GWGlPTTgq-1" vertex="1">
                    <mxGeometry x="292" y="220" width="120" height="80" as="geometry"/>
                </mxCell>
                <mxCell id="AhMMrwKMJMBrkm3QAdiH-1" style="edgeStyle=none;html=1;startArrow=none;startFill=0;endArrow=open;endFill=0;sourcePerimeterSpacing=0;" parent="eNKYxBsOCk_GWGlPTTgq-1" source="eNKYxBsOCk_GWGlPTTgq-120" target="AhMMrwKMJMBrkm3QAdiH-0" edge="1">
                    <mxGeometry relative="1" as="geometry"/>
                </mxCell>
                <mxCell id="eNKYxBsOCk_GWGlPTTgq-120" value="Curso" style="whiteSpace=wrap;html=1;" parent="eNKYxBsOCk_GWGlPTTgq-1" vertex="1">
                    <mxGeometry x="1360" y="720" width="120" height="60" as="geometry"/>
                </mxCell>
                <mxCell id="eNKYxBsOCk_GWGlPTTgq-121" style="edgeStyle=none;html=1;startArrow=none;startFill=0;endArrow=open;endFill=0;sourcePerimeterSpacing=0;" parent="eNKYxBsOCk_GWGlPTTgq-1" source="eNKYxBsOCk_GWGlPTTgq-8" target="eNKYxBsOCk_GWGlPTTgq-120" edge="1">
                    <mxGeometry relative="1" as="geometry">
                        <Array as="points">
                            <mxPoint x="920" y="670"/>
                            <mxPoint x="1160" y="670"/>
                            <mxPoint x="1420" y="670"/>
                        </Array>
                    </mxGeometry>
                </mxCell>
                <mxCell id="eNKYxBsOCk_GWGlPTTgq-122" value="Si" style="text;html=1;strokeColor=none;fillColor=none;align=center;verticalAlign=middle;whiteSpace=wrap;rounded=0;" parent="eNKYxBsOCk_GWGlPTTgq-1" vertex="1">
                    <mxGeometry x="870" y="480" width="20" height="20" as="geometry"/>
                </mxCell>
                <mxCell id="eNKYxBsOCk_GWGlPTTgq-123" value="No" style="text;html=1;strokeColor=none;fillColor=none;align=center;verticalAlign=middle;whiteSpace=wrap;rounded=0;" parent="eNKYxBsOCk_GWGlPTTgq-1" vertex="1">
                    <mxGeometry x="920" y="530" width="20" height="20" as="geometry"/>
                </mxCell>
                <mxCell id="eNKYxBsOCk_GWGlPTTgq-148" style="edgeStyle=none;html=1;startArrow=none;startFill=0;endArrow=open;endFill=0;sourcePerimeterSpacing=0;" parent="eNKYxBsOCk_GWGlPTTgq-1" source="eNKYxBsOCk_GWGlPTTgq-125" target="eNKYxBsOCk_GWGlPTTgq-146" edge="1">
                    <mxGeometry relative="1" as="geometry"/>
                </mxCell>
                <mxCell id="eNKYxBsOCk_GWGlPTTgq-149" style="edgeStyle=none;html=1;startArrow=none;startFill=0;endArrow=open;endFill=0;sourcePerimeterSpacing=0;" parent="eNKYxBsOCk_GWGlPTTgq-1" source="eNKYxBsOCk_GWGlPTTgq-125" target="eNKYxBsOCk_GWGlPTTgq-101" edge="1">
                    <mxGeometry relative="1" as="geometry">
                        <Array as="points">
                            <mxPoint x="1770" y="800"/>
                            <mxPoint x="1880" y="800"/>
                            <mxPoint x="1880" y="314"/>
                        </Array>
                    </mxGeometry>
                </mxCell>
                <mxCell id="27" style="edgeStyle=none;html=1;" edge="1" parent="eNKYxBsOCk_GWGlPTTgq-1" source="eNKYxBsOCk_GWGlPTTgq-125" target="26">
                    <mxGeometry relative="1" as="geometry">
                        <Array as="points">
                            <mxPoint x="1770" y="800"/>
                            <mxPoint x="1680" y="800"/>
                            <mxPoint x="1680" y="950"/>
                        </Array>
                    </mxGeometry>
                </mxCell>
                <mxCell id="eNKYxBsOCk_GWGlPTTgq-125" value="Perfil de usuario" style="whiteSpace=wrap;html=1;" parent="eNKYxBsOCk_GWGlPTTgq-1" vertex="1">
                    <mxGeometry x="1710" y="720" width="120" height="60" as="geometry"/>
                </mxCell>
                <mxCell id="eNKYxBsOCk_GWGlPTTgq-138" style="edgeStyle=none;html=1;startArrow=none;startFill=0;endArrow=open;endFill=0;sourcePerimeterSpacing=0;" parent="eNKYxBsOCk_GWGlPTTgq-1" source="eNKYxBsOCk_GWGlPTTgq-126" target="eNKYxBsOCk_GWGlPTTgq-120" edge="1">
                    <mxGeometry relative="1" as="geometry">
                        <Array as="points">
                            <mxPoint x="1330" y="1050"/>
                            <mxPoint x="1330" y="750"/>
                        </Array>
                    </mxGeometry>
                </mxCell>
                <mxCell id="eNKYxBsOCk_GWGlPTTgq-126" value="Resultados evaluación MBTI" style="whiteSpace=wrap;html=1;" parent="eNKYxBsOCk_GWGlPTTgq-1" vertex="1">
                    <mxGeometry x="1360" y="1020" width="120" height="60" as="geometry"/>
                </mxCell>
                <mxCell id="eNKYxBsOCk_GWGlPTTgq-131" style="edgeStyle=none;html=1;startArrow=none;startFill=0;endArrow=none;endFill=0;sourcePerimeterSpacing=0;dashed=1;" parent="eNKYxBsOCk_GWGlPTTgq-1" source="eNKYxBsOCk_GWGlPTTgq-128" target="eNKYxBsOCk_GWGlPTTgq-8" edge="1">
                    <mxGeometry relative="1" as="geometry"/>
                </mxCell>
                <mxCell id="eNKYxBsOCk_GWGlPTTgq-128" value="- Estado del proceso&lt;br&gt;- Opciones de acceso a los demás recursos" style="shape=note;size=15;align=left;spacingLeft=10;html=1;whiteSpace=wrap;" parent="eNKYxBsOCk_GWGlPTTgq-1" vertex="1">
                    <mxGeometry x="1070" y="580" width="150" height="60" as="geometry"/>
                </mxCell>
                <mxCell id="L9y62m9pfD5F6gvJoC_6-19" value="" style="edgeStyle=none;html=1;startArrow=none;startFill=0;endArrow=open;endFill=0;sourcePerimeterSpacing=0;" parent="eNKYxBsOCk_GWGlPTTgq-1" source="eNKYxBsOCk_GWGlPTTgq-132" target="L9y62m9pfD5F6gvJoC_6-18" edge="1">
                    <mxGeometry relative="1" as="geometry">
                        <Array as="points">
                            <mxPoint x="830" y="800"/>
                            <mxPoint x="1010" y="800"/>
                        </Array>
                    </mxGeometry>
                </mxCell>
                <mxCell id="AhMMrwKMJMBrkm3QAdiH-25" style="edgeStyle=none;html=1;startArrow=none;startFill=0;endArrow=open;endFill=0;sourcePerimeterSpacing=0;" parent="eNKYxBsOCk_GWGlPTTgq-1" source="eNKYxBsOCk_GWGlPTTgq-132" target="L9y62m9pfD5F6gvJoC_6-20" edge="1">
                    <mxGeometry relative="1" as="geometry"/>
                </mxCell>
                <mxCell id="eNKYxBsOCk_GWGlPTTgq-132" value="Facturación" style="whiteSpace=wrap;html=1;" parent="eNKYxBsOCk_GWGlPTTgq-1" vertex="1">
                    <mxGeometry x="770" y="720" width="120" height="60" as="geometry"/>
                </mxCell>
                <mxCell id="eNKYxBsOCk_GWGlPTTgq-135" style="edgeStyle=none;html=1;startArrow=none;startFill=0;endArrow=open;endFill=0;sourcePerimeterSpacing=0;" parent="eNKYxBsOCk_GWGlPTTgq-1" source="eNKYxBsOCk_GWGlPTTgq-133" target="eNKYxBsOCk_GWGlPTTgq-126" edge="1">
                    <mxGeometry relative="1" as="geometry"/>
                </mxCell>
                <mxCell id="eNKYxBsOCk_GWGlPTTgq-140" value="" style="edgeStyle=none;html=1;startArrow=none;startFill=0;endArrow=open;endFill=0;sourcePerimeterSpacing=0;" parent="eNKYxBsOCk_GWGlPTTgq-1" source="eNKYxBsOCk_GWGlPTTgq-133" target="eNKYxBsOCk_GWGlPTTgq-139" edge="1">
                    <mxGeometry relative="1" as="geometry"/>
                </mxCell>
                <mxCell id="eNKYxBsOCk_GWGlPTTgq-133" value="Estado curso" style="rhombus;whiteSpace=wrap;html=1;" parent="eNKYxBsOCk_GWGlPTTgq-1" vertex="1">
                    <mxGeometry x="1390" y="920" width="60" height="60" as="geometry"/>
                </mxCell>
                <mxCell id="eNKYxBsOCk_GWGlPTTgq-137" value="Mitad" style="text;html=1;strokeColor=none;fillColor=none;align=center;verticalAlign=middle;whiteSpace=wrap;rounded=0;" parent="eNKYxBsOCk_GWGlPTTgq-1" vertex="1">
                    <mxGeometry x="1420" y="980" width="50" height="20" as="geometry"/>
                </mxCell>
                <mxCell id="eNKYxBsOCk_GWGlPTTgq-144" style="edgeStyle=none;html=1;startArrow=none;startFill=0;endArrow=open;endFill=0;sourcePerimeterSpacing=0;" parent="eNKYxBsOCk_GWGlPTTgq-1" source="eNKYxBsOCk_GWGlPTTgq-139" target="eNKYxBsOCk_GWGlPTTgq-143" edge="1">
                    <mxGeometry relative="1" as="geometry"/>
                </mxCell>
                <mxCell id="eNKYxBsOCk_GWGlPTTgq-139" value="Evaluación Final" style="whiteSpace=wrap;html=1;" parent="eNKYxBsOCk_GWGlPTTgq-1" vertex="1">
                    <mxGeometry x="1520" y="920" width="120" height="60" as="geometry"/>
                </mxCell>
                <mxCell id="eNKYxBsOCk_GWGlPTTgq-141" value="Final" style="text;html=1;strokeColor=none;fillColor=none;align=center;verticalAlign=middle;whiteSpace=wrap;rounded=0;" parent="eNKYxBsOCk_GWGlPTTgq-1" vertex="1">
                    <mxGeometry x="1450" y="930" width="50" height="20" as="geometry"/>
                </mxCell>
                <mxCell id="eNKYxBsOCk_GWGlPTTgq-143" value="Certificado" style="whiteSpace=wrap;html=1;" parent="eNKYxBsOCk_GWGlPTTgq-1" vertex="1">
                    <mxGeometry x="1520" y="1020" width="120" height="60" as="geometry"/>
                </mxCell>
                <mxCell id="eNKYxBsOCk_GWGlPTTgq-162" style="edgeStyle=none;html=1;startArrow=none;startFill=0;endArrow=open;endFill=0;sourcePerimeterSpacing=0;" parent="eNKYxBsOCk_GWGlPTTgq-1" source="eNKYxBsOCk_GWGlPTTgq-146" target="eNKYxBsOCk_GWGlPTTgq-166" edge="1">
                    <mxGeometry relative="1" as="geometry">
                        <mxPoint x="1920" y="850" as="targetPoint"/>
                    </mxGeometry>
                </mxCell>
                <mxCell id="eNKYxBsOCk_GWGlPTTgq-146" value="Editar perfil" style="rounded=1;whiteSpace=wrap;html=1;" parent="eNKYxBsOCk_GWGlPTTgq-1" vertex="1">
                    <mxGeometry x="1710" y="820" width="120" height="60" as="geometry"/>
                </mxCell>
                <mxCell id="eNKYxBsOCk_GWGlPTTgq-152" style="edgeStyle=none;html=1;startArrow=none;startFill=0;endArrow=open;endFill=0;sourcePerimeterSpacing=0;" parent="eNKYxBsOCk_GWGlPTTgq-1" source="eNKYxBsOCk_GWGlPTTgq-150" target="eNKYxBsOCk_GWGlPTTgq-99" edge="1">
                    <mxGeometry relative="1" as="geometry"/>
                </mxCell>
                <mxCell id="eNKYxBsOCk_GWGlPTTgq-158" style="edgeStyle=none;html=1;startArrow=none;startFill=0;endArrow=open;endFill=0;sourcePerimeterSpacing=0;" parent="eNKYxBsOCk_GWGlPTTgq-1" source="eNKYxBsOCk_GWGlPTTgq-150" target="eNKYxBsOCk_GWGlPTTgq-153" edge="1">
                    <mxGeometry relative="1" as="geometry"/>
                </mxCell>
                <mxCell id="eNKYxBsOCk_GWGlPTTgq-150" value="Sesión" style="rhombus;whiteSpace=wrap;html=1;" parent="eNKYxBsOCk_GWGlPTTgq-1" vertex="1">
                    <mxGeometry x="1160" y="365" width="60" height="60" as="geometry"/>
                </mxCell>
                <mxCell id="eNKYxBsOCk_GWGlPTTgq-157" value="" style="group" parent="eNKYxBsOCk_GWGlPTTgq-1" vertex="1" connectable="0">
                    <mxGeometry x="1130" y="460" width="120" height="60" as="geometry"/>
                </mxCell>
                <mxCell id="eNKYxBsOCk_GWGlPTTgq-153" value="Generar enlace recuperación" style="rounded=1;whiteSpace=wrap;html=1;" parent="eNKYxBsOCk_GWGlPTTgq-157" vertex="1">
                    <mxGeometry width="120" height="60" as="geometry"/>
                </mxCell>
                <mxCell id="eNKYxBsOCk_GWGlPTTgq-154" value="" style="sketch=0;pointerEvents=1;shadow=0;dashed=0;html=1;strokeColor=none;labelPosition=center;verticalLabelPosition=bottom;verticalAlign=top;align=center;fillColor=#515151;shape=mxgraph.mscae.system_center.roles" parent="eNKYxBsOCk_GWGlPTTgq-157" vertex="1">
                    <mxGeometry width="20" height="20" as="geometry"/>
                </mxCell>
                <mxCell id="eNKYxBsOCk_GWGlPTTgq-159" style="edgeStyle=none;html=1;startArrow=none;startFill=0;endArrow=open;endFill=0;sourcePerimeterSpacing=0;" parent="eNKYxBsOCk_GWGlPTTgq-1" source="eNKYxBsOCk_GWGlPTTgq-153" target="eNKYxBsOCk_GWGlPTTgq-99" edge="1">
                    <mxGeometry relative="1" as="geometry">
                        <Array as="points">
                            <mxPoint x="1330" y="490"/>
                            <mxPoint x="1330" y="395"/>
                        </Array>
                    </mxGeometry>
                </mxCell>
                <mxCell id="eNKYxBsOCk_GWGlPTTgq-160" value="Si" style="text;html=1;strokeColor=none;fillColor=none;align=center;verticalAlign=middle;whiteSpace=wrap;rounded=0;" parent="eNKYxBsOCk_GWGlPTTgq-1" vertex="1">
                    <mxGeometry x="1220" y="374" width="20" height="20" as="geometry"/>
                </mxCell>
                <mxCell id="eNKYxBsOCk_GWGlPTTgq-161" value="No" style="text;html=1;strokeColor=none;fillColor=none;align=center;verticalAlign=middle;whiteSpace=wrap;rounded=0;" parent="eNKYxBsOCk_GWGlPTTgq-1" vertex="1">
                    <mxGeometry x="1192" y="423" width="20" height="20" as="geometry"/>
                </mxCell>
                <mxCell id="eNKYxBsOCk_GWGlPTTgq-165" value="" style="group" parent="eNKYxBsOCk_GWGlPTTgq-1" vertex="1" connectable="0">
                    <mxGeometry x="1890" y="820" width="120" height="60" as="geometry"/>
                </mxCell>
                <mxCell id="eNKYxBsOCk_GWGlPTTgq-166" value="Perfil de usuario" style="rounded=0;whiteSpace=wrap;html=1;" parent="eNKYxBsOCk_GWGlPTTgq-165" vertex="1">
                    <mxGeometry width="120" height="60" as="geometry"/>
                </mxCell>
                <mxCell id="eNKYxBsOCk_GWGlPTTgq-167" value="" style="sketch=0;pointerEvents=1;shadow=0;dashed=0;html=1;strokeColor=none;fillColor=#505050;labelPosition=center;verticalLabelPosition=bottom;verticalAlign=top;outlineConnect=0;align=center;shape=mxgraph.office.concepts.form;" parent="eNKYxBsOCk_GWGlPTTgq-165" vertex="1">
                    <mxGeometry width="22.86" height="20" as="geometry"/>
                </mxCell>
                <mxCell id="eNKYxBsOCk_GWGlPTTgq-170" style="edgeStyle=none;html=1;startArrow=none;startFill=0;endArrow=open;endFill=0;sourcePerimeterSpacing=0;" parent="eNKYxBsOCk_GWGlPTTgq-1" source="eNKYxBsOCk_GWGlPTTgq-168" target="eNKYxBsOCk_GWGlPTTgq-125" edge="1">
                    <mxGeometry relative="1" as="geometry">
                        <Array as="points">
                            <mxPoint x="2130" y="750"/>
                        </Array>
                    </mxGeometry>
                </mxCell>
                <mxCell id="eNKYxBsOCk_GWGlPTTgq-168" value="Guardar cambios" style="rounded=1;whiteSpace=wrap;html=1;" parent="eNKYxBsOCk_GWGlPTTgq-1" vertex="1">
                    <mxGeometry x="2070" y="820" width="120" height="60" as="geometry"/>
                </mxCell>
                <mxCell id="eNKYxBsOCk_GWGlPTTgq-169" style="edgeStyle=none;html=1;startArrow=none;startFill=0;endArrow=open;endFill=0;sourcePerimeterSpacing=0;" parent="eNKYxBsOCk_GWGlPTTgq-1" source="eNKYxBsOCk_GWGlPTTgq-166" target="eNKYxBsOCk_GWGlPTTgq-168" edge="1">
                    <mxGeometry relative="1" as="geometry"/>
                </mxCell>
                <mxCell id="eNKYxBsOCk_GWGlPTTgq-171" value="- Código Id. de usuario-Unico&lt;br&gt;- Nombre&lt;br&gt;- Apellido&lt;br&gt;- Correo&lt;br&gt;- Dirección&lt;br&gt;- Teléfono&lt;br&gt;- Foto de perfil" style="text;html=1;strokeColor=none;fillColor=none;align=left;verticalAlign=middle;whiteSpace=wrap;rounded=0;" parent="eNKYxBsOCk_GWGlPTTgq-1" vertex="1">
                    <mxGeometry x="1950" y="880" width="180" height="110" as="geometry"/>
                </mxCell>
                <mxCell id="eNKYxBsOCk_GWGlPTTgq-174" style="edgeStyle=none;html=1;startArrow=none;startFill=0;endArrow=open;endFill=0;sourcePerimeterSpacing=0;" parent="eNKYxBsOCk_GWGlPTTgq-1" source="eNKYxBsOCk_GWGlPTTgq-172" target="eNKYxBsOCk_GWGlPTTgq-2" edge="1">
                    <mxGeometry relative="1" as="geometry">
                        <Array as="points">
                            <mxPoint x="1680" y="750"/>
                            <mxPoint x="1680" y="70"/>
                        </Array>
                    </mxGeometry>
                </mxCell>
                <mxCell id="eNKYxBsOCk_GWGlPTTgq-172" value="Cerrar sesión" style="rounded=1;whiteSpace=wrap;html=1;" parent="eNKYxBsOCk_GWGlPTTgq-1" vertex="1">
                    <mxGeometry x="1520" y="720" width="120" height="60" as="geometry"/>
                </mxCell>
                <mxCell id="eNKYxBsOCk_GWGlPTTgq-173" style="edgeStyle=none;html=1;startArrow=none;startFill=0;endArrow=open;endFill=0;sourcePerimeterSpacing=0;" parent="eNKYxBsOCk_GWGlPTTgq-1" source="eNKYxBsOCk_GWGlPTTgq-8" target="eNKYxBsOCk_GWGlPTTgq-172" edge="1">
                    <mxGeometry relative="1" as="geometry">
                        <Array as="points">
                            <mxPoint x="920" y="670"/>
                            <mxPoint x="1160" y="670"/>
                            <mxPoint x="1580" y="670"/>
                        </Array>
                    </mxGeometry>
                </mxCell>
                <mxCell id="L9y62m9pfD5F6gvJoC_6-2" style="edgeStyle=none;html=1;startArrow=none;startFill=0;endArrow=open;endFill=0;sourcePerimeterSpacing=0;" parent="eNKYxBsOCk_GWGlPTTgq-1" source="L9y62m9pfD5F6gvJoC_6-0" target="eNKYxBsOCk_GWGlPTTgq-3" edge="1">
                    <mxGeometry relative="1" as="geometry">
                        <Array as="points">
                            <mxPoint x="820" y="260"/>
                            <mxPoint x="920" y="260"/>
                        </Array>
                    </mxGeometry>
                </mxCell>
                <mxCell id="L9y62m9pfD5F6gvJoC_6-3" style="edgeStyle=none;html=1;startArrow=none;startFill=0;endArrow=open;endFill=0;sourcePerimeterSpacing=0;entryX=0.993;entryY=0.174;entryDx=0;entryDy=0;entryPerimeter=0;" parent="eNKYxBsOCk_GWGlPTTgq-1" source="L9y62m9pfD5F6gvJoC_6-0" target="eNKYxBsOCk_GWGlPTTgq-8" edge="1">
                    <mxGeometry relative="1" as="geometry">
                        <Array as="points">
                            <mxPoint x="1050" y="212"/>
                            <mxPoint x="1050" y="590"/>
                        </Array>
                    </mxGeometry>
                </mxCell>
                <mxCell id="L9y62m9pfD5F6gvJoC_6-0" value="Sesión" style="rhombus;whiteSpace=wrap;html=1;" parent="eNKYxBsOCk_GWGlPTTgq-1" vertex="1">
                    <mxGeometry x="790" y="182" width="60" height="60" as="geometry"/>
                </mxCell>
                <mxCell id="L9y62m9pfD5F6gvJoC_6-4" value="Si" style="text;html=1;strokeColor=none;fillColor=none;align=center;verticalAlign=middle;whiteSpace=wrap;rounded=0;" parent="eNKYxBsOCk_GWGlPTTgq-1" vertex="1">
                    <mxGeometry x="850" y="192" width="20" height="20" as="geometry"/>
                </mxCell>
                <mxCell id="L9y62m9pfD5F6gvJoC_6-5" value="No" style="text;html=1;strokeColor=none;fillColor=none;align=center;verticalAlign=middle;whiteSpace=wrap;rounded=0;" parent="eNKYxBsOCk_GWGlPTTgq-1" vertex="1">
                    <mxGeometry x="824" y="241" width="20" height="20" as="geometry"/>
                </mxCell>
                <mxCell id="L9y62m9pfD5F6gvJoC_6-7" style="edgeStyle=none;html=1;startArrow=none;startFill=0;endArrow=open;endFill=0;sourcePerimeterSpacing=0;" parent="eNKYxBsOCk_GWGlPTTgq-1" source="L9y62m9pfD5F6gvJoC_6-0" target="eNKYxBsOCk_GWGlPTTgq-101" edge="1">
                    <mxGeometry relative="1" as="geometry">
                        <Array as="points">
                            <mxPoint x="820" y="260"/>
                            <mxPoint x="1190" y="260"/>
                        </Array>
                    </mxGeometry>
                </mxCell>
                <mxCell id="L9y62m9pfD5F6gvJoC_6-8" style="edgeStyle=none;html=1;startArrow=none;startFill=0;endArrow=open;endFill=0;sourcePerimeterSpacing=0;" parent="eNKYxBsOCk_GWGlPTTgq-1" source="L9y62m9pfD5F6gvJoC_6-0" target="eNKYxBsOCk_GWGlPTTgq-4" edge="1">
                    <mxGeometry relative="1" as="geometry">
                        <Array as="points">
                            <mxPoint x="820" y="260"/>
                            <mxPoint x="720" y="260"/>
                        </Array>
                    </mxGeometry>
                </mxCell>
                <mxCell id="L9y62m9pfD5F6gvJoC_6-9" style="edgeStyle=none;html=1;startArrow=none;startFill=0;endArrow=open;endFill=0;sourcePerimeterSpacing=0;" parent="eNKYxBsOCk_GWGlPTTgq-1" source="eNKYxBsOCk_GWGlPTTgq-8" target="eNKYxBsOCk_GWGlPTTgq-132" edge="1">
                    <mxGeometry relative="1" as="geometry">
                        <Array as="points">
                            <mxPoint x="920" y="670"/>
                            <mxPoint x="830" y="670"/>
                        </Array>
                    </mxGeometry>
                </mxCell>
                <mxCell id="10" style="edgeStyle=none;html=1;" edge="1" parent="eNKYxBsOCk_GWGlPTTgq-1" source="L9y62m9pfD5F6gvJoC_6-12" target="4">
                    <mxGeometry relative="1" as="geometry">
                        <Array as="points">
                            <mxPoint x="100" y="1580"/>
                        </Array>
                    </mxGeometry>
                </mxCell>
                <mxCell id="12" style="edgeStyle=none;html=1;" edge="1" parent="eNKYxBsOCk_GWGlPTTgq-1" source="L9y62m9pfD5F6gvJoC_6-12" target="5">
                    <mxGeometry relative="1" as="geometry">
                        <Array as="points">
                            <mxPoint x="100" y="1830"/>
                        </Array>
                    </mxGeometry>
                </mxCell>
                <mxCell id="L9y62m9pfD5F6gvJoC_6-12" value="Gestor de cuentas de usuario" style="whiteSpace=wrap;html=1;" parent="eNKYxBsOCk_GWGlPTTgq-1" vertex="1">
                    <mxGeometry x="40" y="1400" width="120" height="60" as="geometry"/>
                </mxCell>
                <mxCell id="AhMMrwKMJMBrkm3QAdiH-43" style="edgeStyle=none;html=1;startArrow=none;startFill=0;endArrow=open;endFill=0;sourcePerimeterSpacing=0;" parent="eNKYxBsOCk_GWGlPTTgq-1" source="eNKYxBsOCk_GWGlPTTgq-74" target="AhMMrwKMJMBrkm3QAdiH-41" edge="1">
                    <mxGeometry relative="1" as="geometry"/>
                </mxCell>
                <mxCell id="L9y62m9pfD5F6gvJoC_6-15" value="Natural" style="text;html=1;strokeColor=none;fillColor=none;align=center;verticalAlign=middle;whiteSpace=wrap;rounded=0;" parent="eNKYxBsOCk_GWGlPTTgq-1" vertex="1">
                    <mxGeometry x="430" y="720" width="50" height="20" as="geometry"/>
                </mxCell>
                <mxCell id="L9y62m9pfD5F6gvJoC_6-16" value="Corporativo" style="text;html=1;strokeColor=none;fillColor=none;align=center;verticalAlign=middle;whiteSpace=wrap;rounded=0;" parent="eNKYxBsOCk_GWGlPTTgq-1" vertex="1">
                    <mxGeometry x="400" y="770" width="70" height="20" as="geometry"/>
                </mxCell>
                <mxCell id="L9y62m9pfD5F6gvJoC_6-17" value="Administrador" style="text;html=1;strokeColor=none;fillColor=none;align=center;verticalAlign=middle;whiteSpace=wrap;rounded=0;" parent="eNKYxBsOCk_GWGlPTTgq-1" vertex="1">
                    <mxGeometry x="300" y="720" width="70" height="20" as="geometry"/>
                </mxCell>
                <mxCell id="L9y62m9pfD5F6gvJoC_6-18" value="Historial de pago" style="whiteSpace=wrap;html=1;" parent="eNKYxBsOCk_GWGlPTTgq-1" vertex="1">
                    <mxGeometry x="950" y="830" width="120" height="60" as="geometry"/>
                </mxCell>
                <mxCell id="AhMMrwKMJMBrkm3QAdiH-26" style="edgeStyle=none;html=1;startArrow=none;startFill=0;endArrow=open;endFill=0;sourcePerimeterSpacing=0;" parent="eNKYxBsOCk_GWGlPTTgq-1" source="L9y62m9pfD5F6gvJoC_6-20" target="L9y62m9pfD5F6gvJoC_6-22" edge="1">
                    <mxGeometry relative="1" as="geometry">
                        <Array as="points">
                            <mxPoint x="830" y="920"/>
                            <mxPoint x="1010" y="920"/>
                        </Array>
                    </mxGeometry>
                </mxCell>
                <mxCell id="AhMMrwKMJMBrkm3QAdiH-27" style="edgeStyle=none;html=1;startArrow=none;startFill=0;endArrow=open;endFill=0;sourcePerimeterSpacing=0;" parent="eNKYxBsOCk_GWGlPTTgq-1" source="L9y62m9pfD5F6gvJoC_6-20" target="L9y62m9pfD5F6gvJoC_6-27" edge="1">
                    <mxGeometry relative="1" as="geometry"/>
                </mxCell>
                <mxCell id="L9y62m9pfD5F6gvJoC_6-20" value="Orden de pago" style="whiteSpace=wrap;html=1;" parent="eNKYxBsOCk_GWGlPTTgq-1" vertex="1">
                    <mxGeometry x="770" y="830" width="120" height="60" as="geometry"/>
                </mxCell>
                <mxCell id="L9y62m9pfD5F6gvJoC_6-33" style="edgeStyle=none;html=1;startArrow=none;startFill=0;endArrow=open;endFill=0;sourcePerimeterSpacing=0;" parent="eNKYxBsOCk_GWGlPTTgq-1" source="L9y62m9pfD5F6gvJoC_6-22" target="L9y62m9pfD5F6gvJoC_6-25" edge="1">
                    <mxGeometry relative="1" as="geometry"/>
                </mxCell>
                <mxCell id="L9y62m9pfD5F6gvJoC_6-22" value="Pagar orden" style="rounded=1;whiteSpace=wrap;html=1;" parent="eNKYxBsOCk_GWGlPTTgq-1" vertex="1">
                    <mxGeometry x="950" y="950" width="120" height="60" as="geometry"/>
                </mxCell>
                <mxCell id="L9y62m9pfD5F6gvJoC_6-24" value="" style="group" parent="eNKYxBsOCk_GWGlPTTgq-1" vertex="1" connectable="0">
                    <mxGeometry x="950" y="1050" width="120" height="60" as="geometry"/>
                </mxCell>
                <mxCell id="L9y62m9pfD5F6gvJoC_6-25" value="Stripe" style="rounded=0;whiteSpace=wrap;html=1;" parent="L9y62m9pfD5F6gvJoC_6-24" vertex="1">
                    <mxGeometry width="120" height="60" as="geometry"/>
                </mxCell>
                <mxCell id="L9y62m9pfD5F6gvJoC_6-26" value="" style="sketch=0;pointerEvents=1;shadow=0;dashed=0;html=1;strokeColor=none;fillColor=#505050;labelPosition=center;verticalLabelPosition=bottom;verticalAlign=top;outlineConnect=0;align=center;shape=mxgraph.office.concepts.form;" parent="L9y62m9pfD5F6gvJoC_6-24" vertex="1">
                    <mxGeometry width="22.86" height="20" as="geometry"/>
                </mxCell>
                <mxCell id="AhMMrwKMJMBrkm3QAdiH-29" style="edgeStyle=none;html=1;startArrow=none;startFill=0;endArrow=open;endFill=0;sourcePerimeterSpacing=0;" parent="eNKYxBsOCk_GWGlPTTgq-1" source="L9y62m9pfD5F6gvJoC_6-27" target="L9y62m9pfD5F6gvJoC_6-30" edge="1">
                    <mxGeometry relative="1" as="geometry"/>
                </mxCell>
                <mxCell id="L9y62m9pfD5F6gvJoC_6-27" value="Informar pago" style="rounded=1;whiteSpace=wrap;html=1;" parent="eNKYxBsOCk_GWGlPTTgq-1" vertex="1">
                    <mxGeometry x="770" y="950" width="120" height="60" as="geometry"/>
                </mxCell>
                <mxCell id="L9y62m9pfD5F6gvJoC_6-29" value="" style="group" parent="eNKYxBsOCk_GWGlPTTgq-1" vertex="1" connectable="0">
                    <mxGeometry x="770" y="1050" width="120" height="60" as="geometry"/>
                </mxCell>
                <mxCell id="L9y62m9pfD5F6gvJoC_6-30" value="Comprobante de pago" style="rounded=0;whiteSpace=wrap;html=1;" parent="L9y62m9pfD5F6gvJoC_6-29" vertex="1">
                    <mxGeometry width="120" height="60" as="geometry"/>
                </mxCell>
                <mxCell id="L9y62m9pfD5F6gvJoC_6-31" value="" style="sketch=0;pointerEvents=1;shadow=0;dashed=0;html=1;strokeColor=none;fillColor=#505050;labelPosition=center;verticalLabelPosition=bottom;verticalAlign=top;outlineConnect=0;align=center;shape=mxgraph.office.concepts.form;" parent="L9y62m9pfD5F6gvJoC_6-29" vertex="1">
                    <mxGeometry width="22.86" height="20" as="geometry"/>
                </mxCell>
                <mxCell id="AhMMrwKMJMBrkm3QAdiH-30" style="edgeStyle=none;html=1;startArrow=none;startFill=0;endArrow=open;endFill=0;sourcePerimeterSpacing=0;" parent="eNKYxBsOCk_GWGlPTTgq-1" source="L9y62m9pfD5F6gvJoC_6-34" target="L9y62m9pfD5F6gvJoC_6-18" edge="1">
                    <mxGeometry relative="1" as="geometry">
                        <Array as="points">
                            <mxPoint x="1100" y="1230"/>
                            <mxPoint x="1100" y="860"/>
                        </Array>
                    </mxGeometry>
                </mxCell>
                <mxCell id="L9y62m9pfD5F6gvJoC_6-34" value="Completar pago" style="rounded=1;whiteSpace=wrap;html=1;" parent="eNKYxBsOCk_GWGlPTTgq-1" vertex="1">
                    <mxGeometry x="950" y="1200" width="120" height="60" as="geometry"/>
                </mxCell>
                <mxCell id="L9y62m9pfD5F6gvJoC_6-35" style="edgeStyle=none;html=1;startArrow=none;startFill=0;endArrow=open;endFill=0;sourcePerimeterSpacing=0;" parent="eNKYxBsOCk_GWGlPTTgq-1" source="L9y62m9pfD5F6gvJoC_6-25" target="L9y62m9pfD5F6gvJoC_6-34" edge="1">
                    <mxGeometry relative="1" as="geometry"/>
                </mxCell>
                <mxCell id="L9y62m9pfD5F6gvJoC_6-36" value="- Información de tarjeta" style="text;html=1;strokeColor=none;fillColor=none;align=left;verticalAlign=middle;whiteSpace=wrap;rounded=0;" parent="eNKYxBsOCk_GWGlPTTgq-1" vertex="1">
                    <mxGeometry x="1010" y="1110" width="80" height="40" as="geometry"/>
                </mxCell>
                <mxCell id="L9y62m9pfD5F6gvJoC_6-37" value="- Fecha de pago&lt;br&gt;- Número de comprobante&lt;br&gt;- Comprobante adjunto" style="text;html=1;strokeColor=none;fillColor=none;align=left;verticalAlign=middle;whiteSpace=wrap;rounded=0;" parent="eNKYxBsOCk_GWGlPTTgq-1" vertex="1">
                    <mxGeometry x="830" y="1110" width="100" height="80" as="geometry"/>
                </mxCell>
                <mxCell id="AhMMrwKMJMBrkm3QAdiH-31" style="edgeStyle=none;html=1;startArrow=none;startFill=0;endArrow=open;endFill=0;sourcePerimeterSpacing=0;" parent="eNKYxBsOCk_GWGlPTTgq-1" source="L9y62m9pfD5F6gvJoC_6-38" target="L9y62m9pfD5F6gvJoC_6-18" edge="1">
                    <mxGeometry relative="1" as="geometry">
                        <Array as="points">
                            <mxPoint x="830" y="1280"/>
                            <mxPoint x="1100" y="1280"/>
                            <mxPoint x="1100" y="860"/>
                        </Array>
                    </mxGeometry>
                </mxCell>
                <mxCell id="L9y62m9pfD5F6gvJoC_6-38" value="Enviar comprobante" style="rounded=1;whiteSpace=wrap;html=1;" parent="eNKYxBsOCk_GWGlPTTgq-1" vertex="1">
                    <mxGeometry x="770" y="1200" width="120" height="60" as="geometry"/>
                </mxCell>
                <mxCell id="L9y62m9pfD5F6gvJoC_6-39" style="edgeStyle=none;html=1;startArrow=none;startFill=0;endArrow=open;endFill=0;sourcePerimeterSpacing=0;" parent="eNKYxBsOCk_GWGlPTTgq-1" source="L9y62m9pfD5F6gvJoC_6-30" target="L9y62m9pfD5F6gvJoC_6-38" edge="1">
                    <mxGeometry relative="1" as="geometry"/>
                </mxCell>
                <mxCell id="-fi5gi8bVVoTjOj71rLI-0" style="edgeStyle=none;html=1;" parent="eNKYxBsOCk_GWGlPTTgq-1" source="AhMMrwKMJMBrkm3QAdiH-0" target="eNKYxBsOCk_GWGlPTTgq-133" edge="1">
                    <mxGeometry relative="1" as="geometry"/>
                </mxCell>
                <mxCell id="AhMMrwKMJMBrkm3QAdiH-0" value="Lección" style="whiteSpace=wrap;html=1;" parent="eNKYxBsOCk_GWGlPTTgq-1" vertex="1">
                    <mxGeometry x="1360" y="820" width="120" height="60" as="geometry"/>
                </mxCell>
                <mxCell id="AhMMrwKMJMBrkm3QAdiH-32" value="" style="group" parent="eNKYxBsOCk_GWGlPTTgq-1" vertex="1" connectable="0">
                    <mxGeometry x="340" y="830" width="120" height="60" as="geometry"/>
                </mxCell>
                <mxCell id="AhMMrwKMJMBrkm3QAdiH-33" value="Solicitud de plan corporativo" style="rounded=0;whiteSpace=wrap;html=1;" parent="AhMMrwKMJMBrkm3QAdiH-32" vertex="1">
                    <mxGeometry width="120" height="60" as="geometry"/>
                </mxCell>
                <mxCell id="AhMMrwKMJMBrkm3QAdiH-34" value="" style="sketch=0;pointerEvents=1;shadow=0;dashed=0;html=1;strokeColor=none;fillColor=#505050;labelPosition=center;verticalLabelPosition=bottom;verticalAlign=top;outlineConnect=0;align=center;shape=mxgraph.office.concepts.form;" parent="AhMMrwKMJMBrkm3QAdiH-32" vertex="1">
                    <mxGeometry width="22.86" height="20" as="geometry"/>
                </mxCell>
                <mxCell id="AhMMrwKMJMBrkm3QAdiH-35" value="- Tipo de plan&lt;br&gt;- Nombre de empresa&lt;br&gt;- Dirección&lt;br&gt;- Teléfono empresa" style="text;html=1;strokeColor=none;fillColor=none;align=left;verticalAlign=middle;whiteSpace=wrap;rounded=0;" parent="eNKYxBsOCk_GWGlPTTgq-1" vertex="1">
                    <mxGeometry x="405" y="890" width="125" height="70" as="geometry"/>
                </mxCell>
                <mxCell id="AhMMrwKMJMBrkm3QAdiH-39" style="edgeStyle=none;html=1;startArrow=none;startFill=0;endArrow=open;endFill=0;sourcePerimeterSpacing=0;" parent="eNKYxBsOCk_GWGlPTTgq-1" source="AhMMrwKMJMBrkm3QAdiH-33" target="AhMMrwKMJMBrkm3QAdiH-48" edge="1">
                    <mxGeometry relative="1" as="geometry">
                        <mxPoint x="400" y="980" as="targetPoint"/>
                    </mxGeometry>
                </mxCell>
                <mxCell id="AhMMrwKMJMBrkm3QAdiH-40" value="" style="group" parent="eNKYxBsOCk_GWGlPTTgq-1" vertex="1" connectable="0">
                    <mxGeometry x="550" y="710" width="120" height="60" as="geometry"/>
                </mxCell>
                <mxCell id="AhMMrwKMJMBrkm3QAdiH-41" value="Perfil de usuario" style="rounded=0;whiteSpace=wrap;html=1;" parent="AhMMrwKMJMBrkm3QAdiH-40" vertex="1">
                    <mxGeometry width="120" height="60" as="geometry"/>
                </mxCell>
                <mxCell id="AhMMrwKMJMBrkm3QAdiH-42" value="" style="sketch=0;pointerEvents=1;shadow=0;dashed=0;html=1;strokeColor=none;fillColor=#505050;labelPosition=center;verticalLabelPosition=bottom;verticalAlign=top;outlineConnect=0;align=center;shape=mxgraph.office.concepts.form;" parent="AhMMrwKMJMBrkm3QAdiH-40" vertex="1">
                    <mxGeometry width="22.86" height="20" as="geometry"/>
                </mxCell>
                <mxCell id="AhMMrwKMJMBrkm3QAdiH-45" style="edgeStyle=none;html=1;startArrow=none;startFill=0;endArrow=open;endFill=0;sourcePerimeterSpacing=0;" parent="eNKYxBsOCk_GWGlPTTgq-1" source="AhMMrwKMJMBrkm3QAdiH-44" target="L9y62m9pfD5F6gvJoC_6-20" edge="1">
                    <mxGeometry relative="1" as="geometry">
                        <Array as="points">
                            <mxPoint x="720" y="910"/>
                            <mxPoint x="720" y="860"/>
                        </Array>
                    </mxGeometry>
                </mxCell>
                <mxCell id="AhMMrwKMJMBrkm3QAdiH-44" value="Guardar y continuar" style="rounded=1;whiteSpace=wrap;html=1;" parent="eNKYxBsOCk_GWGlPTTgq-1" vertex="1">
                    <mxGeometry x="550" y="880" width="120" height="60" as="geometry"/>
                </mxCell>
                <mxCell id="AhMMrwKMJMBrkm3QAdiH-46" style="edgeStyle=none;html=1;startArrow=none;startFill=0;endArrow=open;endFill=0;sourcePerimeterSpacing=0;" parent="eNKYxBsOCk_GWGlPTTgq-1" source="AhMMrwKMJMBrkm3QAdiH-41" target="AhMMrwKMJMBrkm3QAdiH-44" edge="1">
                    <mxGeometry relative="1" as="geometry"/>
                </mxCell>
                <mxCell id="AhMMrwKMJMBrkm3QAdiH-47" value="- Nombre&lt;br&gt;- Apellido&lt;br&gt;- Correo&lt;br&gt;- Dirección&lt;br&gt;- Teléfono&lt;br&gt;- Foto de perfil" style="text;html=1;strokeColor=none;fillColor=none;align=left;verticalAlign=middle;whiteSpace=wrap;rounded=0;" parent="eNKYxBsOCk_GWGlPTTgq-1" vertex="1">
                    <mxGeometry x="610" y="770" width="120" height="100" as="geometry"/>
                </mxCell>
                <mxCell id="AhMMrwKMJMBrkm3QAdiH-49" style="edgeStyle=none;html=1;startArrow=none;startFill=0;endArrow=open;endFill=0;sourcePerimeterSpacing=0;" parent="eNKYxBsOCk_GWGlPTTgq-1" source="AhMMrwKMJMBrkm3QAdiH-48" target="AhMMrwKMJMBrkm3QAdiH-51" edge="1">
                    <mxGeometry relative="1" as="geometry">
                        <mxPoint x="490" y="1010" as="targetPoint"/>
                    </mxGeometry>
                </mxCell>
                <mxCell id="-fi5gi8bVVoTjOj71rLI-5" style="edgeStyle=none;html=1;startArrow=none;" parent="eNKYxBsOCk_GWGlPTTgq-1" source="AhMMrwKMJMBrkm3QAdiH-48" target="L9y62m9pfD5F6gvJoC_6-20" edge="1">
                    <mxGeometry relative="1" as="geometry">
                        <Array as="points">
                            <mxPoint x="400" y="1180"/>
                            <mxPoint x="720" y="1180"/>
                            <mxPoint x="720" y="860"/>
                        </Array>
                    </mxGeometry>
                </mxCell>
                <mxCell id="AhMMrwKMJMBrkm3QAdiH-48" value="Pago" style="rhombus;whiteSpace=wrap;html=1;" parent="eNKYxBsOCk_GWGlPTTgq-1" vertex="1">
                    <mxGeometry x="370" y="980" width="60" height="60" as="geometry"/>
                </mxCell>
                <mxCell id="AhMMrwKMJMBrkm3QAdiH-50" value="" style="group" parent="eNKYxBsOCk_GWGlPTTgq-1" vertex="1" connectable="0">
                    <mxGeometry x="550" y="980" width="120" height="60" as="geometry"/>
                </mxCell>
                <mxCell id="AhMMrwKMJMBrkm3QAdiH-51" value="Listado de usuarios corporativos" style="rounded=0;whiteSpace=wrap;html=1;" parent="AhMMrwKMJMBrkm3QAdiH-50" vertex="1">
                    <mxGeometry width="120" height="60" as="geometry"/>
                </mxCell>
                <mxCell id="AhMMrwKMJMBrkm3QAdiH-52" value="" style="sketch=0;pointerEvents=1;shadow=0;dashed=0;html=1;strokeColor=none;fillColor=#505050;labelPosition=center;verticalLabelPosition=bottom;verticalAlign=top;outlineConnect=0;align=center;shape=mxgraph.office.concepts.form;" parent="AhMMrwKMJMBrkm3QAdiH-50" vertex="1">
                    <mxGeometry width="22.86" height="20" as="geometry"/>
                </mxCell>
                <mxCell id="-fi5gi8bVVoTjOj71rLI-3" style="edgeStyle=none;html=1;" parent="eNKYxBsOCk_GWGlPTTgq-1" source="-fi5gi8bVVoTjOj71rLI-1" target="eNKYxBsOCk_GWGlPTTgq-8" edge="1">
                    <mxGeometry relative="1" as="geometry">
                        <Array as="points">
                            <mxPoint x="740" y="1130"/>
                            <mxPoint x="740" y="610"/>
                        </Array>
                    </mxGeometry>
                </mxCell>
                <mxCell id="-fi5gi8bVVoTjOj71rLI-2" style="edgeStyle=none;html=1;" parent="eNKYxBsOCk_GWGlPTTgq-1" source="AhMMrwKMJMBrkm3QAdiH-51" target="-fi5gi8bVVoTjOj71rLI-1" edge="1">
                    <mxGeometry relative="1" as="geometry"/>
                </mxCell>
                <mxCell id="-fi5gi8bVVoTjOj71rLI-4" value="Si" style="text;html=1;strokeColor=none;fillColor=none;align=center;verticalAlign=middle;whiteSpace=wrap;rounded=0;" parent="eNKYxBsOCk_GWGlPTTgq-1" vertex="1">
                    <mxGeometry x="430" y="990" width="20" height="20" as="geometry"/>
                </mxCell>
                <mxCell id="-fi5gi8bVVoTjOj71rLI-6" value="&lt;span style=&quot;color: rgb(0, 0, 0); font-family: helvetica; font-size: 12px; font-style: normal; font-weight: 400; letter-spacing: normal; text-align: left; text-indent: 0px; text-transform: none; word-spacing: 0px; background-color: rgb(248, 249, 250); display: inline; float: none;&quot;&gt;- Nombre&lt;/span&gt;&lt;br style=&quot;color: rgb(0, 0, 0); font-family: helvetica; font-size: 12px; font-style: normal; font-weight: 400; letter-spacing: normal; text-align: left; text-indent: 0px; text-transform: none; word-spacing: 0px; background-color: rgb(248, 249, 250);&quot;&gt;&lt;span style=&quot;color: rgb(0, 0, 0); font-family: helvetica; font-size: 12px; font-style: normal; font-weight: 400; letter-spacing: normal; text-align: left; text-indent: 0px; text-transform: none; word-spacing: 0px; background-color: rgb(248, 249, 250); display: inline; float: none;&quot;&gt;- Apellido&lt;/span&gt;&lt;br style=&quot;color: rgb(0, 0, 0); font-family: helvetica; font-size: 12px; font-style: normal; font-weight: 400; letter-spacing: normal; text-align: left; text-indent: 0px; text-transform: none; word-spacing: 0px; background-color: rgb(248, 249, 250);&quot;&gt;&lt;span style=&quot;color: rgb(0, 0, 0); font-family: helvetica; font-size: 12px; font-style: normal; font-weight: 400; letter-spacing: normal; text-align: left; text-indent: 0px; text-transform: none; word-spacing: 0px; background-color: rgb(248, 249, 250); display: inline; float: none;&quot;&gt;- Correo&lt;/span&gt;" style="text;whiteSpace=wrap;html=1;" parent="eNKYxBsOCk_GWGlPTTgq-1" vertex="1">
                    <mxGeometry x="610" y="1040" width="80" height="60" as="geometry"/>
                </mxCell>
                <mxCell id="-fi5gi8bVVoTjOj71rLI-1" value="Enviar listado" style="rounded=1;whiteSpace=wrap;html=1;" parent="eNKYxBsOCk_GWGlPTTgq-1" vertex="1">
                    <mxGeometry x="550" y="1100" width="120" height="60" as="geometry"/>
                </mxCell>
                <mxCell id="-fi5gi8bVVoTjOj71rLI-8" value="No" style="text;html=1;strokeColor=none;fillColor=none;align=center;verticalAlign=middle;whiteSpace=wrap;rounded=0;" parent="eNKYxBsOCk_GWGlPTTgq-1" vertex="1">
                    <mxGeometry x="400" y="1040" width="20" height="20" as="geometry"/>
                </mxCell>
                <mxCell id="-fi5gi8bVVoTjOj71rLI-9" value="Notificaciones" style="whiteSpace=wrap;html=1;" parent="eNKYxBsOCk_GWGlPTTgq-1" vertex="1">
                    <mxGeometry x="1080" y="720" width="120" height="60" as="geometry"/>
                </mxCell>
                <mxCell id="-fi5gi8bVVoTjOj71rLI-15" style="edgeStyle=none;html=1;" parent="eNKYxBsOCk_GWGlPTTgq-1" source="-fi5gi8bVVoTjOj71rLI-10" target="-fi5gi8bVVoTjOj71rLI-13" edge="1">
                    <mxGeometry relative="1" as="geometry"/>
                </mxCell>
                <mxCell id="-fi5gi8bVVoTjOj71rLI-10" value="Soporte" style="whiteSpace=wrap;html=1;" parent="eNKYxBsOCk_GWGlPTTgq-1" vertex="1">
                    <mxGeometry x="1170" y="910" width="120" height="60" as="geometry"/>
                </mxCell>
                <mxCell id="-fi5gi8bVVoTjOj71rLI-11" style="edgeStyle=none;html=1;startArrow=none;startFill=0;endArrow=open;endFill=0;sourcePerimeterSpacing=0;" parent="eNKYxBsOCk_GWGlPTTgq-1" source="eNKYxBsOCk_GWGlPTTgq-8" target="-fi5gi8bVVoTjOj71rLI-9" edge="1">
                    <mxGeometry relative="1" as="geometry">
                        <Array as="points">
                            <mxPoint x="920" y="670"/>
                            <mxPoint x="1140" y="670"/>
                        </Array>
                    </mxGeometry>
                </mxCell>
                <mxCell id="-fi5gi8bVVoTjOj71rLI-12" style="edgeStyle=none;html=1;startArrow=none;startFill=0;endArrow=open;endFill=0;sourcePerimeterSpacing=0;" parent="eNKYxBsOCk_GWGlPTTgq-1" source="eNKYxBsOCk_GWGlPTTgq-8" target="-fi5gi8bVVoTjOj71rLI-10" edge="1">
                    <mxGeometry relative="1" as="geometry">
                        <Array as="points">
                            <mxPoint x="920" y="670"/>
                            <mxPoint x="1160" y="670"/>
                            <mxPoint x="1230" y="670"/>
                        </Array>
                    </mxGeometry>
                </mxCell>
                <mxCell id="-fi5gi8bVVoTjOj71rLI-16" style="edgeStyle=none;html=1;" parent="eNKYxBsOCk_GWGlPTTgq-1" source="-fi5gi8bVVoTjOj71rLI-13" target="-fi5gi8bVVoTjOj71rLI-14" edge="1">
                    <mxGeometry relative="1" as="geometry"/>
                </mxCell>
                <mxCell id="-fi5gi8bVVoTjOj71rLI-26" style="edgeStyle=none;html=1;" parent="eNKYxBsOCk_GWGlPTTgq-1" source="-fi5gi8bVVoTjOj71rLI-13" target="-fi5gi8bVVoTjOj71rLI-25" edge="1">
                    <mxGeometry relative="1" as="geometry">
                        <Array as="points">
                            <mxPoint x="1230" y="1100"/>
                            <mxPoint x="1380" y="1100"/>
                        </Array>
                    </mxGeometry>
                </mxCell>
                <mxCell id="-fi5gi8bVVoTjOj71rLI-13" value="Tickets activos" style="whiteSpace=wrap;html=1;" parent="eNKYxBsOCk_GWGlPTTgq-1" vertex="1">
                    <mxGeometry x="1170" y="1020" width="120" height="60" as="geometry"/>
                </mxCell>
                <mxCell id="-fi5gi8bVVoTjOj71rLI-20" style="edgeStyle=none;html=1;" parent="eNKYxBsOCk_GWGlPTTgq-1" source="-fi5gi8bVVoTjOj71rLI-14" target="-fi5gi8bVVoTjOj71rLI-18" edge="1">
                    <mxGeometry relative="1" as="geometry"/>
                </mxCell>
                <mxCell id="-fi5gi8bVVoTjOj71rLI-14" value="Crear Ticket" style="rounded=1;whiteSpace=wrap;html=1;" parent="eNKYxBsOCk_GWGlPTTgq-1" vertex="1">
                    <mxGeometry x="1170" y="1120" width="120" height="60" as="geometry"/>
                </mxCell>
                <mxCell id="-fi5gi8bVVoTjOj71rLI-17" value="" style="group" parent="eNKYxBsOCk_GWGlPTTgq-1" vertex="1" connectable="0">
                    <mxGeometry x="1170" y="1220" width="120" height="60" as="geometry"/>
                </mxCell>
                <mxCell id="-fi5gi8bVVoTjOj71rLI-18" value="Ticket" style="rounded=0;whiteSpace=wrap;html=1;" parent="-fi5gi8bVVoTjOj71rLI-17" vertex="1">
                    <mxGeometry width="120" height="60" as="geometry"/>
                </mxCell>
                <mxCell id="-fi5gi8bVVoTjOj71rLI-19" value="" style="sketch=0;pointerEvents=1;shadow=0;dashed=0;html=1;strokeColor=none;fillColor=#505050;labelPosition=center;verticalLabelPosition=bottom;verticalAlign=top;outlineConnect=0;align=center;shape=mxgraph.office.concepts.form;" parent="-fi5gi8bVVoTjOj71rLI-17" vertex="1">
                    <mxGeometry width="22.86" height="20" as="geometry"/>
                </mxCell>
                <mxCell id="-fi5gi8bVVoTjOj71rLI-21" value="- Fecha solicitud&lt;br&gt;- Asunto&lt;br&gt;- Mensaje" style="text;html=1;strokeColor=none;fillColor=none;align=left;verticalAlign=middle;whiteSpace=wrap;rounded=0;" parent="eNKYxBsOCk_GWGlPTTgq-1" vertex="1">
                    <mxGeometry x="1230" y="1280" width="100" height="60" as="geometry"/>
                </mxCell>
                <mxCell id="-fi5gi8bVVoTjOj71rLI-24" style="edgeStyle=none;html=1;" parent="eNKYxBsOCk_GWGlPTTgq-1" source="-fi5gi8bVVoTjOj71rLI-22" target="-fi5gi8bVVoTjOj71rLI-13" edge="1">
                    <mxGeometry relative="1" as="geometry">
                        <Array as="points">
                            <mxPoint x="1140" y="1370"/>
                            <mxPoint x="1140" y="1050"/>
                        </Array>
                    </mxGeometry>
                </mxCell>
                <mxCell id="-fi5gi8bVVoTjOj71rLI-22" value="Enviar ticket" style="rounded=1;whiteSpace=wrap;html=1;" parent="eNKYxBsOCk_GWGlPTTgq-1" vertex="1">
                    <mxGeometry x="1170" y="1340" width="120" height="60" as="geometry"/>
                </mxCell>
                <mxCell id="-fi5gi8bVVoTjOj71rLI-23" style="edgeStyle=none;html=1;" parent="eNKYxBsOCk_GWGlPTTgq-1" source="-fi5gi8bVVoTjOj71rLI-18" target="-fi5gi8bVVoTjOj71rLI-22" edge="1">
                    <mxGeometry relative="1" as="geometry"/>
                </mxCell>
                <mxCell id="-fi5gi8bVVoTjOj71rLI-28" value="" style="edgeStyle=none;html=1;startArrow=none;" parent="eNKYxBsOCk_GWGlPTTgq-1" source="eNKYxBsOCk_GWGlPTTgq-175" target="-fi5gi8bVVoTjOj71rLI-27" edge="1">
                    <mxGeometry relative="1" as="geometry"/>
                </mxCell>
                <mxCell id="-fi5gi8bVVoTjOj71rLI-38" style="edgeStyle=none;html=1;" parent="eNKYxBsOCk_GWGlPTTgq-1" source="-fi5gi8bVVoTjOj71rLI-25" target="eNKYxBsOCk_GWGlPTTgq-175" edge="1">
                    <mxGeometry relative="1" as="geometry"/>
                </mxCell>
                <mxCell id="-fi5gi8bVVoTjOj71rLI-25" value="Ver Ticket" style="rounded=1;whiteSpace=wrap;html=1;" parent="eNKYxBsOCk_GWGlPTTgq-1" vertex="1">
                    <mxGeometry x="1320" y="1120" width="120" height="60" as="geometry"/>
                </mxCell>
                <mxCell id="-fi5gi8bVVoTjOj71rLI-34" style="edgeStyle=none;html=1;" parent="eNKYxBsOCk_GWGlPTTgq-1" source="-fi5gi8bVVoTjOj71rLI-27" target="-fi5gi8bVVoTjOj71rLI-32" edge="1">
                    <mxGeometry relative="1" as="geometry"/>
                </mxCell>
                <mxCell id="-fi5gi8bVVoTjOj71rLI-27" value="Responder comentario del ticket" style="rounded=1;whiteSpace=wrap;html=1;" parent="eNKYxBsOCk_GWGlPTTgq-1" vertex="1">
                    <mxGeometry x="1320" y="1340" width="120" height="60" as="geometry"/>
                </mxCell>
                <mxCell id="eNKYxBsOCk_GWGlPTTgq-175" value="Ticket" style="whiteSpace=wrap;html=1;" parent="eNKYxBsOCk_GWGlPTTgq-1" vertex="1">
                    <mxGeometry x="1320" y="1220" width="120" height="60" as="geometry"/>
                </mxCell>
                <mxCell id="-fi5gi8bVVoTjOj71rLI-31" value="" style="group" parent="eNKYxBsOCk_GWGlPTTgq-1" vertex="1" connectable="0">
                    <mxGeometry x="1470" y="1340" width="120" height="60" as="geometry"/>
                </mxCell>
                <mxCell id="-fi5gi8bVVoTjOj71rLI-32" value="Comentario" style="rounded=0;whiteSpace=wrap;html=1;" parent="-fi5gi8bVVoTjOj71rLI-31" vertex="1">
                    <mxGeometry width="120" height="60" as="geometry"/>
                </mxCell>
                <mxCell id="-fi5gi8bVVoTjOj71rLI-33" value="" style="sketch=0;pointerEvents=1;shadow=0;dashed=0;html=1;strokeColor=none;fillColor=#505050;labelPosition=center;verticalLabelPosition=bottom;verticalAlign=top;outlineConnect=0;align=center;shape=mxgraph.office.concepts.form;" parent="-fi5gi8bVVoTjOj71rLI-31" vertex="1">
                    <mxGeometry width="22.86" height="20" as="geometry"/>
                </mxCell>
                <mxCell id="-fi5gi8bVVoTjOj71rLI-37" style="edgeStyle=none;html=1;" parent="eNKYxBsOCk_GWGlPTTgq-1" source="-fi5gi8bVVoTjOj71rLI-35" target="eNKYxBsOCk_GWGlPTTgq-175" edge="1">
                    <mxGeometry relative="1" as="geometry"/>
                </mxCell>
                <mxCell id="-fi5gi8bVVoTjOj71rLI-35" value="Enviar comentario" style="rounded=1;whiteSpace=wrap;html=1;" parent="eNKYxBsOCk_GWGlPTTgq-1" vertex="1">
                    <mxGeometry x="1470" y="1220" width="120" height="60" as="geometry"/>
                </mxCell>
                <mxCell id="-fi5gi8bVVoTjOj71rLI-36" style="edgeStyle=none;html=1;" parent="eNKYxBsOCk_GWGlPTTgq-1" source="-fi5gi8bVVoTjOj71rLI-32" target="-fi5gi8bVVoTjOj71rLI-35" edge="1">
                    <mxGeometry relative="1" as="geometry"/>
                </mxCell>
                <mxCell id="CNeSGMCtKJL2MYmjwMrN-0" value="Ir al área de miembros" style="rounded=1;whiteSpace=wrap;html=1;" parent="eNKYxBsOCk_GWGlPTTgq-1" vertex="1">
                    <mxGeometry x="760" y="100" width="120" height="60" as="geometry"/>
                </mxCell>
                <mxCell id="CNeSGMCtKJL2MYmjwMrN-1" value="Estado de cuenta de usuario" style="whiteSpace=wrap;html=1;" parent="eNKYxBsOCk_GWGlPTTgq-1" vertex="1">
                    <mxGeometry x="930" y="720" width="120" height="60" as="geometry"/>
                </mxCell>
                <mxCell id="CNeSGMCtKJL2MYmjwMrN-2" style="edgeStyle=none;html=1;startArrow=none;startFill=0;endArrow=open;endFill=0;sourcePerimeterSpacing=0;" parent="eNKYxBsOCk_GWGlPTTgq-1" source="eNKYxBsOCk_GWGlPTTgq-8" target="CNeSGMCtKJL2MYmjwMrN-1" edge="1">
                    <mxGeometry relative="1" as="geometry">
                        <Array as="points">
                            <mxPoint x="920" y="670"/>
                            <mxPoint x="990" y="670"/>
                        </Array>
                    </mxGeometry>
                </mxCell>
                <mxCell id="CNeSGMCtKJL2MYmjwMrN-3" value="- Elemento desplegable, estilo submenú" style="shape=note;size=15;align=left;spacingLeft=10;html=1;whiteSpace=wrap;" parent="eNKYxBsOCk_GWGlPTTgq-1" vertex="1">
                    <mxGeometry x="1270" y="580" width="150" height="60" as="geometry"/>
                </mxCell>
                <mxCell id="CNeSGMCtKJL2MYmjwMrN-4" style="edgeStyle=none;html=1;startArrow=none;startFill=0;endArrow=none;endFill=0;sourcePerimeterSpacing=0;dashed=1;" parent="eNKYxBsOCk_GWGlPTTgq-1" source="CNeSGMCtKJL2MYmjwMrN-3" target="-fi5gi8bVVoTjOj71rLI-9" edge="1">
                    <mxGeometry relative="1" as="geometry">
                        <mxPoint x="1270" y="709" as="sourcePoint"/>
                        <mxPoint x="1180" y="709" as="targetPoint"/>
                    </mxGeometry>
                </mxCell>
                <mxCell id="62" style="edgeStyle=none;html=1;" edge="1" parent="eNKYxBsOCk_GWGlPTTgq-1" source="0" target="60">
                    <mxGeometry relative="1" as="geometry"/>
                </mxCell>
                <mxCell id="0" value="Gestor de sistema de pago" style="whiteSpace=wrap;html=1;" vertex="1" parent="eNKYxBsOCk_GWGlPTTgq-1">
                    <mxGeometry x="490" y="1800" width="120" height="60" as="geometry"/>
                </mxCell>
                <mxCell id="7" style="edgeStyle=none;html=1;" edge="1" parent="eNKYxBsOCk_GWGlPTTgq-1" source="1" target="0">
                    <mxGeometry relative="1" as="geometry">
                        <Array as="points">
                            <mxPoint x="160" y="1280"/>
                            <mxPoint x="550" y="1280"/>
                        </Array>
                    </mxGeometry>
                </mxCell>
                <mxCell id="8" style="edgeStyle=none;html=1;" edge="1" parent="eNKYxBsOCk_GWGlPTTgq-1" source="1" target="2">
                    <mxGeometry relative="1" as="geometry">
                        <Array as="points">
                            <mxPoint x="160" y="1280"/>
                            <mxPoint x="800" y="1280"/>
                        </Array>
                    </mxGeometry>
                </mxCell>
                <mxCell id="9" style="edgeStyle=none;html=1;" edge="1" parent="eNKYxBsOCk_GWGlPTTgq-1" source="1" target="L9y62m9pfD5F6gvJoC_6-12">
                    <mxGeometry relative="1" as="geometry">
                        <Array as="points">
                            <mxPoint x="160" y="1280"/>
                            <mxPoint x="100" y="1280"/>
                        </Array>
                    </mxGeometry>
                </mxCell>
                <mxCell id="1" value="Abrir administrador del sistema" style="rounded=1;whiteSpace=wrap;html=1;" vertex="1" parent="eNKYxBsOCk_GWGlPTTgq-1">
                    <mxGeometry x="100" y="1140" width="120" height="60" as="geometry"/>
                </mxCell>
                <mxCell id="31" value="" style="edgeStyle=none;html=1;" edge="1" parent="eNKYxBsOCk_GWGlPTTgq-1" source="2" target="30">
                    <mxGeometry relative="1" as="geometry"/>
                </mxCell>
                <mxCell id="38" style="edgeStyle=none;html=1;" edge="1" parent="eNKYxBsOCk_GWGlPTTgq-1" source="54" target="37">
                    <mxGeometry relative="1" as="geometry"/>
                </mxCell>
                <mxCell id="55" style="edgeStyle=none;html=1;" edge="1" parent="eNKYxBsOCk_GWGlPTTgq-1" source="2" target="54">
                    <mxGeometry relative="1" as="geometry">
                        <Array as="points">
                            <mxPoint x="800" y="1500"/>
                            <mxPoint x="700" y="1500"/>
                            <mxPoint x="700" y="1680"/>
                        </Array>
                    </mxGeometry>
                </mxCell>
                <mxCell id="2" value="Gestor de Cursos" style="whiteSpace=wrap;html=1;" vertex="1" parent="eNKYxBsOCk_GWGlPTTgq-1">
                    <mxGeometry x="740" y="1400" width="120" height="60" as="geometry"/>
                </mxCell>
                <mxCell id="13" style="edgeStyle=none;html=1;" edge="1" parent="eNKYxBsOCk_GWGlPTTgq-1" source="4" target="6">
                    <mxGeometry relative="1" as="geometry"/>
                </mxCell>
                <mxCell id="29" style="edgeStyle=none;html=1;" edge="1" parent="eNKYxBsOCk_GWGlPTTgq-1" source="4" target="28">
                    <mxGeometry relative="1" as="geometry"/>
                </mxCell>
                <mxCell id="4" value="Listado de usuarios&lt;br&gt;general" style="whiteSpace=wrap;html=1;" vertex="1" parent="eNKYxBsOCk_GWGlPTTgq-1">
                    <mxGeometry x="130" y="1550" width="120" height="60" as="geometry"/>
                </mxCell>
                <mxCell id="15" style="edgeStyle=none;html=1;" edge="1" parent="eNKYxBsOCk_GWGlPTTgq-1" source="5" target="14">
                    <mxGeometry relative="1" as="geometry"/>
                </mxCell>
                <mxCell id="5" value="Listado de usuarios&lt;br&gt;del día" style="whiteSpace=wrap;html=1;" vertex="1" parent="eNKYxBsOCk_GWGlPTTgq-1">
                    <mxGeometry x="130" y="1800" width="120" height="60" as="geometry"/>
                </mxCell>
                <mxCell id="17" style="edgeStyle=none;html=1;" edge="1" parent="eNKYxBsOCk_GWGlPTTgq-1" source="6" target="16">
                    <mxGeometry relative="1" as="geometry"/>
                </mxCell>
                <mxCell id="6" value="Detalles de la cuenta de usuario" style="whiteSpace=wrap;html=1;" vertex="1" parent="eNKYxBsOCk_GWGlPTTgq-1">
                    <mxGeometry x="130" y="1670" width="120" height="60" as="geometry"/>
                </mxCell>
                <mxCell id="14" value="Descargar listado de usuarios del día" style="rounded=1;whiteSpace=wrap;html=1;" vertex="1" parent="eNKYxBsOCk_GWGlPTTgq-1">
                    <mxGeometry x="310" y="1800" width="120" height="60" as="geometry"/>
                </mxCell>
                <mxCell id="16" value="Editar cuenta de usuario" style="rounded=1;whiteSpace=wrap;html=1;" vertex="1" parent="eNKYxBsOCk_GWGlPTTgq-1">
                    <mxGeometry x="310" y="1670" width="120" height="60" as="geometry"/>
                </mxCell>
                <mxCell id="21" style="edgeStyle=none;html=1;" edge="1" parent="eNKYxBsOCk_GWGlPTTgq-1" source="18" target="20">
                    <mxGeometry relative="1" as="geometry"/>
                </mxCell>
                <mxCell id="23" style="edgeStyle=none;html=1;" edge="1" parent="eNKYxBsOCk_GWGlPTTgq-1" source="18" target="22">
                    <mxGeometry relative="1" as="geometry"/>
                </mxCell>
                <mxCell id="18" value="Gestor de archivos evaluación MBTI" style="whiteSpace=wrap;html=1;" vertex="1" parent="eNKYxBsOCk_GWGlPTTgq-1">
                    <mxGeometry x="130" y="1910" width="120" height="60" as="geometry"/>
                </mxCell>
                <mxCell id="19" style="edgeStyle=none;html=1;" edge="1" parent="eNKYxBsOCk_GWGlPTTgq-1" source="L9y62m9pfD5F6gvJoC_6-12" target="18">
                    <mxGeometry relative="1" as="geometry">
                        <Array as="points">
                            <mxPoint x="100" y="1940"/>
                        </Array>
                    </mxGeometry>
                </mxCell>
                <mxCell id="20" value="Subir archivos de resultados de evaluación MBTI" style="rounded=1;whiteSpace=wrap;html=1;" vertex="1" parent="eNKYxBsOCk_GWGlPTTgq-1">
                    <mxGeometry x="310" y="1910" width="120" height="60" as="geometry"/>
                </mxCell>
                <mxCell id="22" value="Relación de usuario-resultado MBTI" style="whiteSpace=wrap;html=1;" vertex="1" parent="eNKYxBsOCk_GWGlPTTgq-1">
                    <mxGeometry x="130" y="2020" width="120" height="60" as="geometry"/>
                </mxCell>
                <mxCell id="26" value="Solicitar darse de baja" style="rounded=1;whiteSpace=wrap;html=1;" vertex="1" parent="eNKYxBsOCk_GWGlPTTgq-1">
                    <mxGeometry x="1710" y="920" width="120" height="60" as="geometry"/>
                </mxCell>
                <mxCell id="28" value="Limpiar usuarios en baja" style="rounded=1;whiteSpace=wrap;html=1;" vertex="1" parent="eNKYxBsOCk_GWGlPTTgq-1">
                    <mxGeometry x="310" y="1550" width="120" height="60" as="geometry"/>
                </mxCell>
                <mxCell id="35" value="" style="edgeStyle=none;html=1;" edge="1" parent="eNKYxBsOCk_GWGlPTTgq-1" source="30">
                    <mxGeometry relative="1" as="geometry">
                        <mxPoint x="940" y="1570" as="targetPoint"/>
                    </mxGeometry>
                </mxCell>
                <mxCell id="30" value="Crear curso" style="rounded=1;whiteSpace=wrap;html=1;" vertex="1" parent="eNKYxBsOCk_GWGlPTTgq-1">
                    <mxGeometry x="740" y="1540" width="120" height="60" as="geometry"/>
                </mxCell>
                <mxCell id="41" value="" style="edgeStyle=none;html=1;" edge="1" parent="eNKYxBsOCk_GWGlPTTgq-1" source="36" target="40">
                    <mxGeometry relative="1" as="geometry"/>
                </mxCell>
                <mxCell id="45" style="edgeStyle=none;html=1;" edge="1" parent="eNKYxBsOCk_GWGlPTTgq-1" source="36" target="44">
                    <mxGeometry relative="1" as="geometry">
                        <Array as="points">
                            <mxPoint x="1100" y="1570"/>
                            <mxPoint x="1100" y="1660"/>
                        </Array>
                    </mxGeometry>
                </mxCell>
                <mxCell id="36" value="Gestor de Curso" style="whiteSpace=wrap;html=1;" vertex="1" parent="eNKYxBsOCk_GWGlPTTgq-1">
                    <mxGeometry x="940" y="1540" width="120" height="60" as="geometry"/>
                </mxCell>
                <mxCell id="39" style="edgeStyle=none;html=1;" edge="1" parent="eNKYxBsOCk_GWGlPTTgq-1" source="37" target="36">
                    <mxGeometry relative="1" as="geometry"/>
                </mxCell>
                <mxCell id="37" value="Editar curso" style="rounded=1;whiteSpace=wrap;html=1;" vertex="1" parent="eNKYxBsOCk_GWGlPTTgq-1">
                    <mxGeometry x="940" y="1650" width="120" height="60" as="geometry"/>
                </mxCell>
                <mxCell id="43" style="edgeStyle=none;html=1;" edge="1" parent="eNKYxBsOCk_GWGlPTTgq-1" source="40" target="42">
                    <mxGeometry relative="1" as="geometry"/>
                </mxCell>
                <mxCell id="40" value="Agregar Lección" style="rounded=1;whiteSpace=wrap;html=1;" vertex="1" parent="eNKYxBsOCk_GWGlPTTgq-1">
                    <mxGeometry x="1140" y="1540" width="120" height="60" as="geometry"/>
                </mxCell>
                <mxCell id="49" style="edgeStyle=none;html=1;" edge="1" parent="eNKYxBsOCk_GWGlPTTgq-1" source="42" target="48">
                    <mxGeometry relative="1" as="geometry"/>
                </mxCell>
                <mxCell id="42" value="Gestor de Lección" style="whiteSpace=wrap;html=1;" vertex="1" parent="eNKYxBsOCk_GWGlPTTgq-1">
                    <mxGeometry x="1330" y="1540" width="120" height="60" as="geometry"/>
                </mxCell>
                <mxCell id="56" style="edgeStyle=none;html=1;" edge="1" parent="eNKYxBsOCk_GWGlPTTgq-1" source="44" target="42">
                    <mxGeometry relative="1" as="geometry">
                        <Array as="points">
                            <mxPoint x="1390" y="1660"/>
                        </Array>
                    </mxGeometry>
                </mxCell>
                <mxCell id="44" value="Editar Lección" style="rounded=1;whiteSpace=wrap;html=1;" vertex="1" parent="eNKYxBsOCk_GWGlPTTgq-1">
                    <mxGeometry x="1142" y="1630" width="120" height="60" as="geometry"/>
                </mxCell>
                <mxCell id="46" value="Borrar Lección" style="rounded=1;whiteSpace=wrap;html=1;" vertex="1" parent="eNKYxBsOCk_GWGlPTTgq-1">
                    <mxGeometry x="1140" y="1730" width="120" height="60" as="geometry"/>
                </mxCell>
                <mxCell id="47" style="edgeStyle=none;html=1;" edge="1" parent="eNKYxBsOCk_GWGlPTTgq-1" source="36" target="46">
                    <mxGeometry relative="1" as="geometry">
                        <Array as="points">
                            <mxPoint x="1100" y="1570"/>
                            <mxPoint x="1100" y="1760"/>
                        </Array>
                    </mxGeometry>
                </mxCell>
                <mxCell id="51" style="edgeStyle=none;html=1;" edge="1" parent="eNKYxBsOCk_GWGlPTTgq-1" source="48" target="50">
                    <mxGeometry relative="1" as="geometry"/>
                </mxCell>
                <mxCell id="48" value="Agregar Actividad" style="rounded=1;whiteSpace=wrap;html=1;" vertex="1" parent="eNKYxBsOCk_GWGlPTTgq-1">
                    <mxGeometry x="1510" y="1540" width="120" height="60" as="geometry"/>
                </mxCell>
                <mxCell id="58" style="edgeStyle=none;html=1;" edge="1" parent="eNKYxBsOCk_GWGlPTTgq-1" source="50" target="57">
                    <mxGeometry relative="1" as="geometry"/>
                </mxCell>
                <mxCell id="66" style="edgeStyle=none;html=1;" edge="1" parent="eNKYxBsOCk_GWGlPTTgq-1" source="50" target="65">
                    <mxGeometry relative="1" as="geometry"/>
                </mxCell>
                <mxCell id="50" value="Gestor de Actividad" style="whiteSpace=wrap;html=1;" vertex="1" parent="eNKYxBsOCk_GWGlPTTgq-1">
                    <mxGeometry x="1510" y="1660" width="120" height="60" as="geometry"/>
                </mxCell>
                <mxCell id="54" value="Vista previa de curso" style="whiteSpace=wrap;html=1;" vertex="1" parent="eNKYxBsOCk_GWGlPTTgq-1">
                    <mxGeometry x="740" y="1650" width="120" height="60" as="geometry"/>
                </mxCell>
                <mxCell id="57" value="Guardar cambios" style="rounded=1;whiteSpace=wrap;html=1;" vertex="1" parent="eNKYxBsOCk_GWGlPTTgq-1">
                    <mxGeometry x="1510" y="1780" width="120" height="60" as="geometry"/>
                </mxCell>
                <mxCell id="59" value="" style="group" vertex="1" connectable="0" parent="eNKYxBsOCk_GWGlPTTgq-1">
                    <mxGeometry x="490" y="1910" width="120" height="60" as="geometry"/>
                </mxCell>
                <mxCell id="60" value="Configuración API de pago" style="rounded=0;whiteSpace=wrap;html=1;" vertex="1" parent="59">
                    <mxGeometry width="120" height="60" as="geometry"/>
                </mxCell>
                <mxCell id="61" value="" style="sketch=0;pointerEvents=1;shadow=0;dashed=0;html=1;strokeColor=none;fillColor=#505050;labelPosition=center;verticalLabelPosition=bottom;verticalAlign=top;outlineConnect=0;align=center;shape=mxgraph.office.concepts.form;" vertex="1" parent="59">
                    <mxGeometry width="22.86" height="20" as="geometry"/>
                </mxCell>
                <mxCell id="63" value="Historial de actividad del sistema" style="whiteSpace=wrap;html=1;" vertex="1" parent="eNKYxBsOCk_GWGlPTTgq-1">
                    <mxGeometry x="275" y="1400" width="120" height="60" as="geometry"/>
                </mxCell>
                <mxCell id="64" style="edgeStyle=none;html=1;" edge="1" parent="eNKYxBsOCk_GWGlPTTgq-1" source="1" target="63">
                    <mxGeometry relative="1" as="geometry">
                        <Array as="points">
                            <mxPoint x="160" y="1280"/>
                            <mxPoint x="335" y="1280"/>
                        </Array>
                    </mxGeometry>
                </mxCell>
                <mxCell id="68" value="" style="edgeStyle=none;html=1;" edge="1" parent="eNKYxBsOCk_GWGlPTTgq-1" source="65" target="67">
                    <mxGeometry relative="1" as="geometry"/>
                </mxCell>
                <mxCell id="65" value="Evaluacion" style="whiteSpace=wrap;html=1;" vertex="1" parent="eNKYxBsOCk_GWGlPTTgq-1">
                    <mxGeometry x="1750" y="1660" width="120" height="60" as="geometry"/>
                </mxCell>
                <mxCell id="67" value="Preguntas" style="whiteSpace=wrap;html=1;" vertex="1" parent="eNKYxBsOCk_GWGlPTTgq-1">
                    <mxGeometry x="1750" y="1780" width="120" height="60" as="geometry"/>
                </mxCell>
                <mxCell id="71" value="Video" style="whiteSpace=wrap;html=1;" vertex="1" parent="eNKYxBsOCk_GWGlPTTgq-1">
                    <mxGeometry x="1750" y="1550" width="120" height="60" as="geometry"/>
                </mxCell>
                <mxCell id="72" style="edgeStyle=none;html=1;" edge="1" parent="eNKYxBsOCk_GWGlPTTgq-1" source="50" target="71">
                    <mxGeometry relative="1" as="geometry">
                        <Array as="points">
                            <mxPoint x="1680" y="1690"/>
                            <mxPoint x="1680" y="1580"/>
                        </Array>
                    </mxGeometry>
                </mxCell>
                <mxCell id="73" value="Diapositivas" style="whiteSpace=wrap;html=1;" vertex="1" parent="eNKYxBsOCk_GWGlPTTgq-1">
                    <mxGeometry x="1750" y="1440" width="120" height="60" as="geometry"/>
                </mxCell>
                <mxCell id="74" style="edgeStyle=none;html=1;" edge="1" parent="eNKYxBsOCk_GWGlPTTgq-1" source="50" target="73">
                    <mxGeometry relative="1" as="geometry">
                        <Array as="points">
                            <mxPoint x="1680" y="1690"/>
                            <mxPoint x="1680" y="1470"/>
                        </Array>
                    </mxGeometry>
                </mxCell>
                <mxCell id="75" value="Gestor de roles del sistema" style="whiteSpace=wrap;html=1;" vertex="1" parent="eNKYxBsOCk_GWGlPTTgq-1">
                    <mxGeometry x="130" y="2130" width="120" height="60" as="geometry"/>
                </mxCell>
                <mxCell id="76" style="edgeStyle=none;html=1;" edge="1" parent="eNKYxBsOCk_GWGlPTTgq-1" source="L9y62m9pfD5F6gvJoC_6-12" target="75">
                    <mxGeometry relative="1" as="geometry">
                        <Array as="points">
                            <mxPoint x="100" y="2180"/>
                        </Array>
                    </mxGeometry>
                </mxCell>
                <mxCell id="77" value="Herramienta de configuración multilenguaje" style="whiteSpace=wrap;html=1;" vertex="1" parent="eNKYxBsOCk_GWGlPTTgq-1">
                    <mxGeometry x="700" y="1800" width="120" height="60" as="geometry"/>
                </mxCell>
                <mxCell id="78" style="edgeStyle=none;html=1;" edge="1" parent="eNKYxBsOCk_GWGlPTTgq-1" source="1" target="77">
                    <mxGeometry relative="1" as="geometry">
                        <Array as="points">
                            <mxPoint x="160" y="1280"/>
                            <mxPoint x="550" y="1280"/>
                            <mxPoint x="550" y="1750"/>
                            <mxPoint x="760" y="1750"/>
                        </Array>
                    </mxGeometry>
                </mxCell>
            </root>
        </mxGraphModel>
    </diagram>
</mxfile>